<?xml version="1.0" encoding="utf-8"?>
<!-- Generator: Adobe Illustrator 26.2.1, SVG Export Plug-In . SVG Version: 6.00 Build 0)  -->
<svg version="1.1" id="Layer_1" xmlns="http://www.w3.org/2000/svg" xmlns:xlink="http://www.w3.org/1999/xlink" x="0px" y="0px"
	 viewBox="0 0 1439 360" style="enable-background:new 0 0 1439 360;" xml:space="preserve">
<style type="text/css">
	.st0{opacity:7.100000e-02;}
	.st1{fill-rule:evenodd;clip-rule:evenodd;fill:#81CAB7;}
</style>
<g transform="translate(-171 -373)" class="st0">
	<path class="st1" d="M113.9,1014.3L113.9,1014.3c60.6,60.6,158.9,60.6,219.5,0l281.1-281.1c60.6-60.6,60.6-158.9,0-219.5l0,0
		c-60.6-60.6-158.9-60.6-219.5,0L113.9,794.8C53.3,855.4,53.3,953.7,113.9,1014.3z"/>
	<path class="st1" d="M1177.9,611.3L1177.9,611.3c60.6,60.6,158.9,60.6,219.5,0l281.1-281.1c60.6-60.6,60.6-158.9,0-219.5l0,0
		c-60.6-60.6-158.9-60.6-219.5,0l-281.1,281.1C1117.3,452.4,1117.3,550.7,1177.9,611.3z"/>
</g>
</svg>
