<svg id="svg" version="1.1" xmlns="http://www.w3.org/2000/svg" xmlns:xlink="http://www.w3.org/1999/xlink" width="400" height="373.2838589981447" viewBox="0, 0, 400,373.2838589981447"><g id="svgg"><path id="path0" d="M27.532 39.406 C 26.902 40.037,26.918 48.378,27.551 48.900 C 28.106 49.358,51.371 49.308,51.833 48.848 C 52.349 48.333,52.434 41.248,51.939 40.051 L 51.487 38.961 39.732 38.961 C 31.085 38.961,27.860 39.079,27.532 39.406 M362.523 39.461 C 362.523 39.735,362.284 40.445,361.991 41.038 C 359.974 45.124,359.812 46.808,360.107 60.593 L 360.384 73.500 363.030 73.392 L 365.677 73.284 365.775 60.130 C 365.879 46.128,365.874 46.075,363.952 40.940 C 363.260 39.089,362.523 38.327,362.523 39.461 M72.975 55.164 C 72.839 55.300,72.727 58.300,72.727 61.830 C 72.727 69.319,72.409 68.795,77.180 69.149 C 102.060 70.997,122.492 91.805,124.507 117.347 L 124.763 120.594 131.826 120.594 L 138.889 120.594 138.655 116.508 C 137.029 88.087,116.687 63.617,88.868 56.618 C 83.618 55.297,73.745 54.394,72.975 55.164 M13.315 60.361 C 9.353 64.217,9.288 65.163,12.748 68.592 L 15.106 70.930 17.293 68.608 C 18.496 67.332,19.747 66.009,20.073 65.668 C 20.398 65.328,21.432 64.522,22.370 63.876 L 24.075 62.704 21.333 60.109 C 17.606 56.581,17.187 56.594,13.315 60.361 M305.076 62.059 L 305.195 62.894 322.727 62.991 L 340.260 63.087 340.260 62.156 L 340.260 61.224 322.609 61.224 L 304.958 61.224 305.076 62.059 M38.054 72.068 C 37.595 72.724,37.475 74.030,37.470 78.468 C 37.463 84.039,37.462 84.046,36.357 85.677 C 34.638 88.214,35.197 91.013,37.654 92.179 C 41.947 94.216,45.801 89.150,42.672 85.585 L 41.558 84.318 41.558 78.363 C 41.558 73.445,41.457 72.308,40.975 71.826 C 40.138 70.989,38.728 71.106,38.054 72.068 M360.259 86.178 C 360.239 92.760,360.197 98.646,360.167 99.258 L 360.111 100.371 362.987 100.479 C 365.620 100.579,365.863 100.527,365.863 99.870 C 365.863 99.414,366.201 99.068,366.790 98.920 L 367.718 98.687 367.718 88.676 C 367.718 82.249,367.585 78.664,367.347 78.664 C 367.110 78.664,366.976 81.932,366.976 87.725 C 366.976 92.708,366.875 97.049,366.751 97.372 C 366.047 99.206,365.863 96.862,365.863 86.085 L 365.863 74.212 363.080 74.212 L 360.297 74.212 360.259 86.178 M274.954 93.110 C 274.954 93.328,275.204 93.506,275.510 93.506 C 276.246 93.506,276.221 94.125,275.470 94.546 C 274.921 94.853,274.921 94.899,275.470 95.109 C 276.223 95.398,276.252 96.104,275.510 96.104 C 275.204 96.104,274.954 96.271,274.954 96.475 C 274.954 96.679,275.204 96.846,275.510 96.846 C 276.257 96.846,276.220 97.553,275.458 97.845 C 274.908 98.056,274.915 98.127,275.529 98.575 C 276.185 99.055,276.184 99.091,275.488 99.617 C 274.837 100.110,274.830 100.163,275.417 100.174 C 276.206 100.188,276.298 101.299,275.510 101.299 C 275.204 101.299,274.954 101.466,274.954 101.670 C 274.954 101.874,275.204 102.041,275.510 102.041 C 276.246 102.041,276.221 102.660,275.470 103.080 C 274.921 103.387,274.921 103.433,275.470 103.644 C 276.223 103.933,276.252 104.638,275.510 104.638 C 275.204 104.638,274.954 104.805,274.954 105.009 C 274.954 105.213,275.204 105.380,275.510 105.380 C 276.237 105.380,276.229 106.083,275.499 106.364 C 275.008 106.552,275.021 106.651,275.592 107.094 C 276.224 107.585,276.224 107.624,275.577 108.011 C 274.924 108.401,274.924 108.431,275.577 108.912 C 276.215 109.381,276.216 109.423,275.603 109.661 C 274.808 109.969,274.747 110.575,275.510 110.575 C 276.274 110.575,276.212 111.182,275.417 111.488 C 274.799 111.726,274.799 111.756,275.417 112.103 C 276.213 112.549,276.267 113.173,275.510 113.173 C 275.204 113.173,274.954 113.340,274.954 113.544 C 274.954 113.748,275.204 113.915,275.510 113.915 C 276.246 113.915,276.221 114.533,275.470 114.954 C 274.921 115.261,274.921 115.307,275.470 115.517 C 276.223 115.806,276.252 116.512,275.510 116.512 C 275.204 116.512,274.954 116.661,274.954 116.843 C 274.954 117.026,275.204 117.271,275.510 117.388 C 275.816 117.506,276.067 117.774,276.067 117.985 C 276.067 118.195,275.816 118.367,275.510 118.367 C 275.204 118.367,274.954 118.534,274.954 118.738 C 274.954 118.942,275.204 119.109,275.510 119.109 C 276.246 119.109,276.221 119.728,275.470 120.149 C 274.921 120.456,274.921 120.502,275.470 120.712 C 276.223 121.001,276.252 121.707,275.510 121.707 C 275.204 121.707,274.954 121.874,274.954 122.078 C 274.954 122.322,286.085 122.449,307.604 122.449 L 340.255 122.449 340.350 148.887 L 340.445 175.325 348.794 175.510 C 353.386 175.612,362.611 175.650,369.295 175.593 L 381.447 175.491 381.447 145.813 L 381.447 116.135 360.946 116.231 L 340.445 116.327 340.336 119.017 L 340.227 121.707 308.522 121.707 L 276.818 121.707 276.720 107.328 L 276.623 92.950 275.788 92.831 C 275.329 92.766,274.954 92.891,274.954 93.110 M306.741 93.383 C 306.362 93.762,306.458 101.411,306.850 102.030 C 307.412 102.919,307.568 102.379,307.831 98.636 C 308.141 94.224,307.756 92.368,306.741 93.383 M308.975 95.230 C 308.540 95.665,308.682 101.973,309.132 102.252 C 309.899 102.726,310.208 101.498,310.113 98.360 C 310.026 95.492,309.676 94.529,308.975 95.230 M291.280 99.289 C 291.280 101.671,291.397 102.435,291.744 102.320 C 292.494 102.072,292.597 96.104,291.852 96.104 C 291.381 96.104,291.280 96.668,291.280 99.289 M302.412 99.474 C 302.412 101.708,302.530 102.435,302.876 102.320 C 303.624 102.073,303.728 96.475,302.984 96.475 C 302.516 96.475,302.412 97.019,302.412 99.474 M311.200 97.087 C 310.787 97.500,310.911 101.975,311.342 102.242 C 312.021 102.661,312.184 102.120,312.099 99.723 C 312.019 97.463,311.715 96.572,311.200 97.087 M326.531 99.814 C 326.531 101.876,326.645 102.412,327.087 102.412 C 327.529 102.412,327.644 101.876,327.644 99.814 C 327.644 97.753,327.529 97.217,327.087 97.217 C 326.645 97.217,326.531 97.753,326.531 99.814 M293.506 100.186 C 293.506 101.917,293.630 102.412,294.063 102.412 C 294.496 102.412,294.620 101.917,294.620 100.186 C 294.620 98.454,294.496 97.959,294.063 97.959 C 293.630 97.959,293.506 98.454,293.506 100.186 M360.077 102.925 C 359.387 104.723,359.972 105.195,362.894 105.195 L 365.677 105.195 365.677 103.896 L 365.677 102.597 362.982 102.488 C 360.879 102.403,360.240 102.499,360.077 102.925 M378.479 125.192 C 378.479 130.397,378.394 131.307,377.892 131.500 C 377.125 131.794,344.582 131.794,343.815 131.500 C 343.313 131.307,343.228 130.397,343.228 125.192 L 343.228 119.109 360.853 119.109 L 378.479 119.109 378.479 125.192 M7.040 121.163 C 6.404 121.929,6.786 128.094,7.794 133.314 C 13.422 162.480,39.192 185.334,67.811 186.540 L 72.727 186.747 72.727 179.701 L 72.727 172.654 69.109 172.420 C 44.004 170.795,23.871 151.018,21.102 125.259 C 20.881 123.203,20.531 121.313,20.323 121.058 C 19.717 120.311,7.667 120.406,7.040 121.163 M348.980 141.002 L 348.980 142.672 347.229 142.784 C 345.621 142.888,345.459 142.820,345.241 141.949 C 344.722 139.880,345.293 139.095,347.229 139.219 L 348.980 139.332 348.980 141.002 M353.247 141.023 L 353.247 142.900 351.670 142.786 C 350.179 142.678,350.086 142.603,349.974 141.430 C 349.791 139.519,350.080 139.147,351.751 139.147 L 353.247 139.147 353.247 141.023 M357.999 141.116 L 358.113 142.900 356.329 142.786 C 354.604 142.675,354.542 142.631,354.427 141.430 C 354.235 139.430,354.525 139.089,356.305 139.218 L 357.885 139.332 357.999 141.116 M377.474 157.607 C 377.779 158.856,377.737 170.506,377.426 170.984 C 377.209 171.319,376.383 171.433,374.734 171.355 L 372.356 171.243 372.255 164.576 C 372.199 160.910,372.235 157.696,372.336 157.434 C 372.643 156.632,377.274 156.788,377.474 157.607 M184.972 189.468 C 155.949 192.506,133.899 207.576,122.053 232.468 C 98.663 281.621,133.380 338.550,187.941 340.512 C 229.910 342.021,266.048 307.883,266.048 266.728 L 266.048 262.621 264.608 261.181 C 262.875 259.448,260.471 259.184,258.326 260.492 C 256.597 261.546,256.156 262.974,255.919 268.281 C 253.422 324.306,184.201 351.167,144.536 311.502 C 130.989 297.955,125.211 283.947,125.250 264.750 C 125.352 215.551,175.830 184.601,220.225 206.518 C 224.669 208.713,225.234 208.824,227.429 207.946 C 230.153 206.856,231.238 202.919,229.483 200.492 C 227.584 197.867,214.356 192.446,205.195 190.538 C 200.638 189.588,189.466 188.997,184.972 189.468 M232.282 253.846 C 227.894 257.333,224.182 260.378,224.032 260.612 C 223.391 261.615,223.708 301.546,224.361 302.088 C 225.302 302.869,239.586 302.826,240.082 302.041 C 240.380 301.569,240.649 247.484,240.353 247.501 C 240.301 247.504,236.670 250.359,232.282 253.846 M173.089 265.153 C 171.053 266.702,169.257 268.199,169.098 268.480 C 168.371 269.764,168.975 301.699,169.737 302.256 C 170.620 302.902,183.641 303.025,184.811 302.399 C 185.504 302.028,185.529 301.444,185.529 285.199 L 185.529 268.382 181.657 265.360 C 176.975 261.705,177.601 261.720,173.089 265.153 " stroke="none" fill="#0e2b4e" fill-rule="evenodd"></path><path id="path1" d="M309.647 33.649 C 303.482 34.184,293.062 36.588,289.475 38.302 C 287.829 39.088,287.195 39.132,274.768 39.321 L 261.781 39.518 259.651 40.563 C 255.527 42.589,252.496 46.743,252.060 50.968 L 251.846 53.043 258.298 53.145 L 264.750 53.247 261.026 57.143 C 236.281 83.037,232.627 122.709,252.253 152.398 L 254.513 155.816 256.339 154.587 C 258.962 152.822,263.382 152.546,265.177 154.035 C 265.596 154.384,265.677 146.258,265.677 103.758 L 265.677 53.066 293.594 52.971 L 321.511 52.876 321.798 50.880 C 323.699 37.675,342.386 34.982,348.316 47.058 L 349.351 49.165 349.451 82.653 L 349.552 116.141 365.499 116.141 L 381.447 116.141 381.459 133.673 C 381.472 153.416,381.220 152.259,384.289 146.652 C 397.192 123.079,396.280 92.871,381.968 69.734 C 378.174 63.600,367.757 51.577,366.236 51.577 C 365.994 51.577,365.859 55.400,365.853 62.430 C 365.831 87.857,365.894 97.743,366.078 97.927 C 366.735 98.584,366.965 95.986,366.970 87.848 C 366.974 81.977,367.110 78.664,367.347 78.664 C 367.585 78.664,367.718 82.249,367.718 88.676 L 367.718 98.687 366.790 98.920 C 366.210 99.066,365.863 99.415,365.863 99.855 C 365.863 100.241,365.696 100.557,365.492 100.557 C 364.995 100.557,365.017 102.160,365.521 102.664 C 365.741 102.884,365.866 103.543,365.799 104.129 L 365.677 105.195 362.894 105.195 L 360.111 105.195 359.990 104.129 C 359.923 103.543,360.048 102.884,360.268 102.664 C 360.697 102.234,360.811 100.823,360.445 100.458 C 360.323 100.335,360.248 93.587,360.279 85.461 C 360.310 77.335,360.218 65.236,360.075 58.574 L 359.814 46.461 355.325 43.838 C 341.746 35.906,325.468 32.275,309.647 33.649 M33.395 54.130 L 33.395 58.910 31.647 59.350 C 29.512 59.888,24.696 62.078,23.901 62.873 C 23.582 63.192,22.613 63.941,21.747 64.536 C -0.007 79.504,8.850 114.063,35.497 118.183 L 37.042 118.422 37.166 122.459 C 37.324 127.552,37.195 127.426,42.411 127.585 C 47.120 127.728,47.240 127.787,48.462 130.551 C 49.857 133.705,49.733 134.147,46.568 137.291 C 42.802 141.032,42.797 140.999,47.811 145.940 C 52.771 150.827,52.890 150.823,57.733 145.606 C 59.510 143.691,59.621 143.676,62.738 144.925 C 65.969 146.219,66.048 146.366,66.048 151.065 C 66.048 156.433,65.760 156.215,72.865 156.215 C 79.711 156.215,79.395 156.437,79.443 151.596 C 79.496 146.313,79.526 146.249,82.535 145.015 C 85.958 143.612,85.866 143.588,89.046 146.715 C 93.084 150.686,92.802 150.711,97.611 145.972 C 102.599 141.057,102.614 140.982,99.230 137.652 C 95.640 134.118,95.570 133.912,96.899 130.797 C 98.268 127.588,98.147 127.656,102.480 127.649 C 104.457 127.646,106.502 127.481,107.026 127.282 L 107.978 126.920 107.978 120.801 C 107.978 113.504,108.294 113.915,102.679 113.915 C 98.298 113.915,98.242 113.884,96.857 110.761 C 95.570 107.856,95.682 107.491,98.840 104.314 C 102.642 100.490,102.650 100.553,97.644 95.619 C 92.826 90.872,93.071 90.901,89.261 94.620 C 85.888 97.913,85.888 97.913,83.074 96.795 C 79.716 95.461,79.406 94.900,79.406 90.159 C 79.406 85.210,79.563 85.343,73.727 85.343 L 69.483 85.343 69.233 83.455 C 68.219 75.815,62.887 67.701,55.868 63.119 C 53.354 61.478,47.523 58.998,46.177 58.998 C 45.736 58.998,45.640 58.137,45.640 54.174 L 45.640 49.351 39.518 49.351 L 33.395 49.351 33.395 54.130 M275.124 61.686 C 275.025 61.946,274.987 67.667,275.041 74.400 L 275.139 86.642 287.427 86.740 C 297.522 86.820,299.791 86.746,300.141 86.324 C 300.447 85.956,300.539 82.373,300.469 73.611 L 300.371 61.410 287.838 61.312 C 277.972 61.235,275.267 61.315,275.124 61.686 M314.193 63.358 C 318.938 63.416,326.702 63.416,331.447 63.358 C 336.192 63.299,332.310 63.251,322.820 63.251 C 313.330 63.251,309.448 63.299,314.193 63.358 M305.129 66.642 C 304.683 67.805,306.082 67.896,323.006 67.807 L 340.074 67.718 340.193 66.883 L 340.311 66.048 322.834 66.048 C 307.152 66.048,305.334 66.109,305.129 66.642 M44.697 69.214 C 59.427 73.050,64.335 91.624,53.475 102.435 C 42.413 113.448,23.842 108.024,20.237 92.726 C 16.881 78.491,30.405 65.491,44.697 69.214 M305.080 71.521 C 305.290 72.613,340.260 72.708,340.260 71.618 C 340.260 70.881,340.041 70.872,322.607 70.872 C 305.995 70.872,304.962 70.910,305.080 71.521 M41.641 78.514 C 41.561 84.300,41.584 84.508,42.393 85.193 C 43.225 85.897,43.226 85.897,42.589 85.139 C 42.054 84.503,41.931 83.411,41.836 78.460 L 41.724 72.542 41.641 78.514 M37.255 78.664 C 37.255 81.827,37.312 83.122,37.382 81.540 C 37.451 79.958,37.451 77.370,37.382 75.788 C 37.312 74.207,37.255 75.501,37.255 78.664 M305.257 75.572 C 303.683 77.146,304.055 77.180,322.635 77.180 L 340.260 77.180 340.260 76.252 L 340.260 75.325 322.882 75.325 C 313.324 75.325,305.393 75.436,305.257 75.572 M305.175 80.552 C 304.529 81.596,306.072 81.700,322.316 81.700 C 331.471 81.700,339.253 81.685,339.610 81.667 C 340.001 81.646,340.260 81.337,340.260 80.891 C 340.260 80.020,305.710 79.686,305.175 80.552 M305.419 84.940 C 303.489 86.163,305.201 86.456,314.252 86.456 C 323.212 86.456,324.154 86.318,323.178 85.141 C 322.662 84.520,306.374 84.336,305.419 84.940 M302.140 107.607 C 302.050 119.390,302.107 120.223,303.009 120.223 C 303.477 120.223,303.547 118.921,303.498 111.159 C 303.452 103.735,303.351 102.131,302.942 102.288 C 302.553 102.437,302.419 101.794,302.335 99.384 C 302.275 97.682,302.187 101.382,302.140 107.607 M312.171 99.072 C 312.171 100.195,312.240 100.654,312.325 100.093 C 312.410 99.532,312.410 98.613,312.325 98.052 C 312.240 97.491,312.171 97.950,312.171 99.072 M326.278 99.814 C 326.278 101.141,326.346 101.684,326.428 101.020 C 326.510 100.357,326.510 99.272,326.428 98.609 C 326.346 97.945,326.278 98.488,326.278 99.814 M293.368 101.484 C 293.442 103.117,293.503 108.001,293.504 112.338 C 293.506 119.098,293.586 120.223,294.063 120.223 C 294.542 120.223,294.620 118.986,294.620 111.317 C 294.620 103.785,294.537 102.412,294.082 102.412 C 293.700 102.412,293.499 101.847,293.389 100.464 C 293.304 99.392,293.294 99.852,293.368 101.484 M292.479 100.557 C 292.479 101.271,292.556 101.563,292.649 101.206 C 292.742 100.849,292.742 100.264,292.649 99.907 C 292.556 99.550,292.479 99.842,292.479 100.557 M306.525 110.853 C 306.555 118.533,306.654 120.223,307.072 120.223 C 307.487 120.223,307.601 118.548,307.687 111.167 C 307.745 106.161,307.649 102.199,307.472 102.309 C 307.297 102.418,307.003 102.277,306.820 101.996 C 306.619 101.687,306.502 105.206,306.525 110.853 M309.833 102.081 C 309.833 102.306,309.624 102.411,309.369 102.313 C 309.004 102.173,308.928 104.062,309.011 111.179 C 309.100 118.829,309.200 120.223,309.660 120.223 C 310.124 120.223,310.204 118.849,310.204 110.946 C 310.204 105.844,310.121 101.670,310.019 101.670 C 309.917 101.670,309.833 101.855,309.833 102.081 M312.059 102.081 C 312.059 102.306,311.806 102.394,311.496 102.275 C 311.001 102.085,310.945 103.137,311.032 111.043 C 311.123 119.259,311.187 120.038,311.781 120.152 C 312.386 120.268,312.430 119.634,312.430 110.973 C 312.430 105.856,312.347 101.670,312.245 101.670 C 312.143 101.670,312.059 101.855,312.059 102.081 M291.744 102.287 C 290.989 102.591,291.080 120.223,291.837 120.223 C 292.316 120.223,292.393 118.965,292.393 111.132 C 292.393 106.132,292.352 102.054,292.301 102.070 C 292.250 102.086,291.999 102.184,291.744 102.287 M326.531 111.317 C 326.531 118.986,326.608 120.223,327.087 120.223 C 327.566 120.223,327.644 118.986,327.644 111.317 C 327.644 103.649,327.566 102.412,327.087 102.412 C 326.608 102.412,326.531 103.649,326.531 111.317 M286.827 111.503 C 286.827 119.006,286.905 120.223,287.384 120.223 C 287.863 120.223,287.941 119.006,287.941 111.503 C 287.941 103.999,287.863 102.783,287.384 102.783 C 286.905 102.783,286.827 103.999,286.827 111.503 M328.757 111.688 C 328.757 119.027,328.835 120.223,329.314 120.223 C 329.792 120.223,329.870 119.027,329.870 111.688 C 329.870 104.350,329.792 103.154,329.314 103.154 C 328.835 103.154,328.757 104.350,328.757 111.688 M280.148 112.059 C 280.148 119.068,280.227 120.223,280.705 120.223 C 281.183 120.223,281.262 119.068,281.262 112.059 C 281.262 105.051,281.183 103.896,280.705 103.896 C 280.227 103.896,280.148 105.051,280.148 112.059 M304.433 104.370 C 304.007 105.479,304.452 119.976,304.917 120.130 C 305.278 120.251,305.380 118.481,305.380 112.090 C 305.380 104.563,305.133 102.546,304.433 104.370 M322.078 112.059 C 322.078 119.068,322.157 120.223,322.635 120.223 C 323.112 120.223,323.191 119.068,323.191 112.059 C 323.191 105.051,323.112 103.896,322.635 103.896 C 322.157 103.896,322.078 105.051,322.078 112.059 M337.662 112.059 C 337.662 118.475,337.764 120.250,338.126 120.130 C 338.478 120.013,338.590 118.062,338.590 112.059 C 338.590 106.056,338.478 104.106,338.126 103.989 C 337.764 103.868,337.662 105.644,337.662 112.059 M313.420 104.886 C 312.847 105.459,313.145 120.223,313.729 120.223 C 314.206 120.223,314.286 119.109,314.286 112.430 C 314.286 105.316,314.152 104.153,313.420 104.886 M289.291 105.267 C 288.725 105.833,289.032 120.223,289.610 120.223 C 290.087 120.223,290.167 119.153,290.167 112.823 C 290.167 106.104,289.989 104.569,289.291 105.267 M333.210 112.616 C 333.210 119.130,333.290 120.223,333.766 120.223 C 334.342 120.223,334.641 107.013,334.098 105.596 C 333.443 103.889,333.210 105.731,333.210 112.616 M300.186 112.801 C 300.186 119.151,300.266 120.223,300.742 120.223 C 301.218 120.223,301.299 119.151,301.299 112.801 C 301.299 106.452,301.218 105.380,300.742 105.380 C 300.266 105.380,300.186 106.452,300.186 112.801 M324.304 112.801 C 324.304 119.151,324.385 120.223,324.861 120.223 C 325.337 120.223,325.417 119.151,325.417 112.801 C 325.417 106.452,325.337 105.380,324.861 105.380 C 324.385 105.380,324.304 106.452,324.304 112.801 M317.625 112.987 C 317.625 119.171,317.706 120.223,318.182 120.223 C 318.658 120.223,318.738 119.171,318.738 112.987 C 318.738 106.803,318.658 105.751,318.182 105.751 C 317.706 105.751,317.625 106.803,317.625 112.987 M278.087 106.971 C 277.667 108.066,278.105 119.975,278.571 120.130 C 278.931 120.250,279.035 118.740,279.035 113.389 C 279.035 107.070,278.761 105.214,278.087 106.971 M78.495 108.302 C 83.188 110.498,86.001 114.625,86.358 119.837 C 87.470 136.055,64.508 140.430,59.693 124.917 C 56.148 113.500,67.731 103.265,78.495 108.302 M335.436 113.544 C 335.436 119.233,335.518 120.223,335.993 120.223 C 336.583 120.223,336.838 110.629,336.317 108.024 C 335.766 105.266,335.436 107.330,335.436 113.544 M319.852 113.729 C 319.852 119.254,319.935 120.223,320.408 120.223 C 320.882 120.223,320.965 119.254,320.965 113.729 C 320.965 108.204,320.882 107.236,320.408 107.236 C 319.935 107.236,319.852 108.204,319.852 113.729 M284.838 108.235 C 284.276 108.798,284.580 120.223,285.158 120.223 C 285.629 120.223,285.714 119.318,285.714 114.308 C 285.714 108.928,285.517 107.557,284.838 108.235 M295.970 108.235 C 295.408 108.798,295.712 120.223,296.289 120.223 C 296.761 120.223,296.846 119.318,296.846 114.308 C 296.846 108.928,296.648 107.557,295.970 108.235 M315.646 110.080 C 315.080 110.647,315.372 120.223,315.955 120.223 C 316.424 120.223,316.512 119.398,316.512 115.028 C 316.512 110.280,316.353 109.373,315.646 110.080 M282.375 115.584 C 282.375 119.460,282.466 120.223,282.931 120.223 C 283.396 120.223,283.488 119.460,283.488 115.584 C 283.488 111.709,283.396 110.946,282.931 110.946 C 282.466 110.946,282.375 111.709,282.375 115.584 M330.983 115.770 C 330.983 119.481,331.076 120.223,331.540 120.223 C 332.004 120.223,332.096 119.481,332.096 115.770 C 332.096 112.059,332.004 111.317,331.540 111.317 C 331.076 111.317,330.983 112.059,330.983 115.770 M69.944 113.249 C 63.465 115.514,62.866 124.631,68.992 127.737 C 74.562 130.560,80.519 126.964,80.519 120.779 C 80.519 115.147,75.250 111.395,69.944 113.249 M297.959 116.698 C 297.959 118.800,298.109 120.223,298.330 120.223 C 298.552 120.223,298.701 118.800,298.701 116.698 C 298.701 114.595,298.552 113.173,298.330 113.173 C 298.109 113.173,297.959 114.595,297.959 116.698 M275.274 117.552 C 275.701 117.851,275.701 117.938,275.274 118.108 C 274.934 118.243,274.991 118.318,275.448 118.338 C 276.227 118.372,276.107 117.560,275.301 117.342 C 274.861 117.223,274.856 117.259,275.274 117.552 M124.515 123.469 C 122.210 150.301,102.117 170.795,76.531 172.414 L 72.727 172.655 72.727 179.704 L 72.727 186.753 77.644 186.524 C 110.215 185.006,138.776 155.322,138.776 122.987 L 138.776 120.594 131.769 120.594 L 124.763 120.594 124.515 123.469 M283.859 129.071 C 283.859 130.616,283.786 130.612,312.738 130.612 L 340.260 130.612 340.260 129.685 L 340.260 128.757 312.059 128.757 C 296.549 128.757,283.859 128.898,283.859 129.071 M285.714 134.133 L 285.714 135.055 312.987 135.153 L 340.260 135.250 340.260 134.230 L 340.260 133.210 312.987 133.210 L 285.714 133.210 285.714 134.133 M284.230 138.961 L 283.359 139.889 311.809 139.889 L 340.260 139.889 340.260 138.961 L 340.260 138.033 312.681 138.033 L 285.102 138.033 284.230 138.961 M345.241 140.054 C 344.722 142.123,345.293 142.909,347.229 142.784 L 348.980 142.672 348.980 141.002 L 348.980 139.332 347.229 139.219 C 345.621 139.116,345.459 139.184,345.241 140.054 M350.055 139.668 C 349.393 141.393,350.054 142.669,351.670 142.786 L 353.247 142.900 353.247 141.023 L 353.247 139.147 351.751 139.147 C 350.809 139.147,350.181 139.339,350.055 139.668 M354.516 139.646 C 353.808 141.491,354.488 142.668,356.329 142.786 L 358.113 142.900 357.999 141.116 L 357.885 139.332 356.305 139.218 C 355.181 139.137,354.664 139.260,354.516 139.646 M275.021 143.692 L 275.139 144.527 307.699 144.622 L 340.260 144.716 340.260 143.787 L 340.260 142.857 307.581 142.857 L 274.902 142.857 275.021 143.692 M275.095 147.849 C 274.596 149.148,275.024 149.165,307.814 149.165 L 340.260 149.165 340.260 148.237 L 340.260 147.310 307.781 147.310 C 279.729 147.310,275.273 147.383,275.095 147.849 M275.095 152.672 C 274.609 153.937,275.251 153.989,291.488 153.989 L 307.607 153.989 307.607 153.061 L 307.607 152.134 291.454 152.134 C 277.675 152.134,275.271 152.213,275.095 152.672 M372.336 157.434 C 372.235 157.696,372.199 160.910,372.255 164.576 L 372.356 171.243 374.734 171.355 C 376.383 171.433,377.209 171.319,377.426 170.984 C 377.737 170.506,377.779 158.856,377.474 157.607 C 377.274 156.788,372.643 156.632,372.336 157.434 M268.701 161.354 C 268.623 163.112,267.647 164.973,266.160 166.198 L 264.885 167.249 267.415 169.365 C 290.873 188.991,325.481 192.590,352.505 178.215 C 357.464 175.577,357.669 175.718,348.574 175.510 L 340.445 175.325 340.344 168.738 L 340.243 162.152 304.654 162.152 L 269.066 162.152 268.911 161.132 C 268.772 160.210,268.751 160.231,268.701 161.354 M304.638 167.356 C 307.046 168.569,308.349 170.865,308.349 173.897 C 308.349 182.704,295.037 183.967,293.107 175.344 C 291.690 169.012,298.524 164.278,304.638 167.356 M206.125 274.608 C 199.404 280.042,200.004 279.765,198.145 278.293 C 197.372 277.681,196.638 277.180,196.514 277.180 C 195.983 277.180,196.276 301.138,196.816 301.877 C 197.530 302.853,212.016 303.003,212.624 302.041 C 213.196 301.135,213.098 269.753,212.523 269.784 C 212.268 269.798,209.389 271.969,206.125 274.608 M149.894 282.872 L 141.929 288.936 141.828 295.494 L 141.727 302.053 142.745 302.440 C 144.261 303.016,157.153 302.738,157.775 302.116 C 158.331 301.559,158.716 276.809,158.168 276.809 C 157.998 276.809,154.274 279.537,149.894 282.872 " stroke="none" fill="#9ac8b5" fill-rule="evenodd"></path><path id="path2" d="M333.294 39.353 C 327.735 40.123,322.604 45.283,321.793 50.919 L 321.511 52.876 293.594 52.971 L 265.677 53.066 265.677 103.648 L 265.677 154.231 266.584 155.082 C 267.802 156.227,268.517 157.857,268.828 160.204 L 269.086 162.152 304.673 162.152 L 340.260 162.152 340.260 155.661 L 340.260 149.169 307.699 149.074 C 275.418 148.980,275.139 148.973,275.139 148.237 C 275.139 147.502,275.418 147.495,307.699 147.401 L 340.260 147.306 340.260 146.011 L 340.260 144.716 307.699 144.622 L 275.139 144.527 275.021 143.692 L 274.902 142.857 307.581 142.857 L 340.260 142.857 340.260 141.373 L 340.260 139.889 311.895 139.889 C 283.892 139.889,283.514 139.898,282.231 140.656 C 277.023 143.728,270.384 140.136,270.379 134.244 C 270.374 128.430,276.750 124.956,282.154 127.829 L 283.898 128.757 312.079 128.757 L 340.260 128.757 340.260 125.603 L 340.260 122.449 307.607 122.449 C 277.572 122.449,273.726 122.342,275.417 121.552 C 275.788 121.379,275.788 121.293,275.417 121.119 C 275.162 121.000,274.954 120.680,274.954 120.408 C 274.954 120.136,275.162 119.816,275.417 119.697 C 275.788 119.524,275.788 119.437,275.417 119.264 C 275.162 119.145,274.954 118.825,274.954 118.553 C 274.954 118.281,275.162 117.974,275.417 117.871 C 275.788 117.721,275.788 117.678,275.417 117.655 C 275.162 117.638,274.954 117.389,274.954 117.100 C 274.954 116.810,275.162 116.476,275.417 116.357 C 275.788 116.184,275.788 116.098,275.417 115.925 C 274.819 115.645,274.819 114.773,275.417 114.530 C 275.767 114.389,275.744 114.244,275.325 113.943 C 274.830 113.588,274.830 113.499,275.325 113.144 C 275.744 112.844,275.767 112.698,275.417 112.557 C 275.162 112.453,274.954 112.146,274.954 111.874 C 274.954 111.602,275.162 111.294,275.417 111.191 C 275.771 111.047,275.755 110.915,275.349 110.632 C 274.907 110.324,274.899 110.160,275.301 109.676 C 275.626 109.284,275.649 109.091,275.370 109.091 C 274.803 109.091,274.841 108.092,275.417 107.823 C 275.788 107.650,275.788 107.563,275.417 107.390 C 274.841 107.121,274.803 106.122,275.370 106.122 C 275.658 106.122,275.644 105.950,275.325 105.566 C 274.956 105.122,274.956 104.897,275.325 104.453 C 275.644 104.068,275.658 103.896,275.370 103.896 C 274.802 103.896,274.841 102.891,275.417 102.657 C 275.771 102.513,275.755 102.380,275.349 102.097 C 274.938 101.811,274.914 101.608,275.247 101.207 C 275.575 100.811,275.571 100.580,275.226 100.235 C 274.871 99.880,274.893 99.701,275.328 99.400 C 275.745 99.111,275.767 98.969,275.417 98.828 C 274.841 98.594,274.802 97.588,275.370 97.588 C 275.649 97.588,275.626 97.395,275.301 97.003 C 274.899 96.519,274.907 96.355,275.349 96.047 C 275.755 95.764,275.771 95.632,275.417 95.488 C 275.162 95.385,274.954 95.077,274.954 94.805 C 274.954 94.533,275.162 94.226,275.417 94.122 C 275.767 93.981,275.744 93.835,275.325 93.535 C 274.830 93.180,274.830 93.095,275.325 92.770 C 276.553 91.965,276.623 92.639,276.809 107.081 L 276.994 121.521 308.627 121.616 L 340.260 121.711 340.260 118.926 L 340.260 116.141 344.906 116.141 L 349.552 116.141 349.451 82.653 L 349.351 49.165 348.316 47.058 C 345.621 41.571,339.598 38.481,333.294 39.353 M300.469 73.611 C 300.539 82.373,300.447 85.956,300.141 86.324 C 299.791 86.746,297.522 86.820,287.427 86.740 L 275.139 86.642 275.041 74.400 C 274.987 67.667,275.025 61.946,275.124 61.686 C 275.267 61.315,277.972 61.235,287.838 61.312 L 300.371 61.410 300.469 73.611 M340.498 61.786 C 341.124 63.417,340.762 63.451,322.801 63.451 C 307.844 63.451,305.734 63.381,305.221 62.868 C 304.590 62.236,304.499 61.859,304.886 61.472 C 305.468 60.890,340.272 61.196,340.498 61.786 M340.193 66.883 L 340.074 67.718 323.006 67.807 C 306.082 67.896,304.683 67.805,305.129 66.642 C 305.334 66.109,307.152 66.048,322.834 66.048 L 340.311 66.048 340.193 66.883 M34.127 69.342 C 13.404 75.975,15.750 105.132,37.237 107.992 C 55.732 110.453,66.839 87.659,53.597 74.418 C 48.548 69.368,40.555 67.285,34.127 69.342 M41.019 71.783 C 41.908 72.672,41.929 72.831,41.929 78.487 C 41.929 84.013,41.970 84.334,42.814 85.461 C 44.576 87.813,44.362 90.046,42.200 91.865 C 38.430 95.037,33.032 89.743,36.085 85.868 C 36.856 84.890,36.934 84.328,37.106 78.549 C 37.330 70.978,38.387 69.151,41.019 71.783 M340.260 71.618 C 340.260 72.708,305.290 72.613,305.080 71.521 C 304.962 70.910,305.995 70.872,322.607 70.872 C 340.041 70.872,340.260 70.881,340.260 71.618 M360.297 73.840 C 360.297 74.055,361.472 74.212,363.080 74.212 C 364.688 74.212,365.863 74.055,365.863 73.840 C 365.863 73.626,364.688 73.469,363.080 73.469 C 361.472 73.469,360.297 73.626,360.297 73.840 M340.260 76.252 L 340.260 77.180 322.635 77.180 C 305.791 77.180,305.009 77.150,305.009 76.500 C 305.009 75.331,305.107 75.325,322.882 75.325 L 340.260 75.325 340.260 76.252 M340.260 80.891 C 340.260 81.337,340.001 81.646,339.610 81.667 C 335.013 81.906,305.586 81.616,305.298 81.327 C 304.215 80.244,305.644 80.148,322.842 80.148 C 340.012 80.148,340.260 80.159,340.260 80.891 M323.178 85.141 C 324.154 86.318,323.212 86.456,314.252 86.456 C 305.201 86.456,303.489 86.163,305.419 84.940 C 306.374 84.336,322.662 84.520,323.178 85.141 M307.852 100.093 C 307.718 103.919,307.608 110.014,307.608 113.636 C 307.607 119.103,307.516 120.223,307.075 120.223 C 306.625 120.223,306.539 118.166,306.507 106.679 L 306.470 93.135 307.283 93.135 L 308.095 93.135 307.852 100.093 M310.204 107.607 C 310.204 118.573,310.131 120.223,309.647 120.223 C 309.172 120.223,309.091 119.198,309.091 113.232 C 309.091 109.386,308.981 103.709,308.847 100.616 C 308.606 95.027,308.609 94.991,309.404 94.991 L 310.204 94.991 310.204 107.607 M292.288 96.197 C 292.485 96.452,292.617 97.746,292.584 99.072 C 292.550 100.399,292.493 105.700,292.458 110.853 C 292.402 118.906,292.315 120.223,291.837 120.223 C 291.353 120.223,291.280 118.615,291.280 107.978 C 291.280 96.450,291.401 95.043,292.288 96.197 M303.503 108.357 C 303.521 118.413,303.443 120.223,302.993 120.223 C 302.111 120.223,302.049 119.353,302.110 107.792 C 302.165 97.250,302.307 95.766,303.208 96.323 C 303.359 96.416,303.492 101.832,303.503 108.357 M312.343 108.660 C 312.435 119.592,312.402 120.272,311.786 120.153 C 311.180 120.036,311.124 119.170,311.034 108.408 C 310.941 97.477,310.974 96.797,311.590 96.916 C 312.197 97.032,312.252 97.898,312.343 108.660 M327.644 108.742 C 327.644 118.209,327.555 120.223,327.136 120.223 C 326.508 120.223,326.015 98.092,326.625 97.314 C 327.492 96.209,327.644 97.915,327.644 108.742 M294.670 98.609 C 295.055 101.519,294.547 120.223,294.084 120.223 C 293.611 120.223,292.985 99.274,293.420 98.052 C 293.721 97.209,294.533 97.570,294.670 98.609 M360.668 101.484 C 360.668 102.371,360.767 102.412,362.894 102.412 C 365.022 102.412,365.121 102.371,365.121 101.484 C 365.121 100.598,365.022 100.557,362.894 100.557 C 360.767 100.557,360.668 100.598,360.668 101.484 M287.941 111.503 C 287.941 119.006,287.863 120.223,287.384 120.223 C 286.905 120.223,286.827 119.006,286.827 111.503 C 286.827 103.999,286.905 102.783,287.384 102.783 C 287.863 102.783,287.941 103.999,287.941 111.503 M329.870 111.688 C 329.870 119.027,329.792 120.223,329.314 120.223 C 328.835 120.223,328.757 119.027,328.757 111.688 C 328.757 104.350,328.835 103.154,329.314 103.154 C 329.792 103.154,329.870 104.350,329.870 111.688 M281.262 112.059 C 281.262 119.068,281.183 120.223,280.705 120.223 C 280.227 120.223,280.148 119.068,280.148 112.059 C 280.148 105.051,280.227 103.896,280.705 103.896 C 281.183 103.896,281.262 105.051,281.262 112.059 M305.380 112.090 C 305.380 118.481,305.278 120.251,304.917 120.130 C 304.452 119.976,304.007 105.479,304.433 104.370 C 305.133 102.546,305.380 104.563,305.380 112.090 M323.191 112.059 C 323.191 119.068,323.112 120.223,322.635 120.223 C 322.157 120.223,322.078 119.068,322.078 112.059 C 322.078 105.051,322.157 103.896,322.635 103.896 C 323.112 103.896,323.191 105.051,323.191 112.059 M338.590 112.059 C 338.590 118.062,338.478 120.013,338.126 120.130 C 337.764 120.250,337.662 118.475,337.662 112.059 C 337.662 105.644,337.764 103.868,338.126 103.989 C 338.478 104.106,338.590 106.056,338.590 112.059 M314.286 112.430 C 314.286 119.109,314.206 120.223,313.729 120.223 C 313.145 120.223,312.847 105.459,313.420 104.886 C 314.152 104.153,314.286 105.316,314.286 112.430 M290.167 112.823 C 290.167 119.153,290.087 120.223,289.610 120.223 C 289.032 120.223,288.725 105.833,289.291 105.267 C 289.989 104.569,290.167 106.104,290.167 112.823 M334.098 105.596 C 334.641 107.013,334.342 120.223,333.766 120.223 C 333.290 120.223,333.210 119.130,333.210 112.616 C 333.210 105.731,333.443 103.889,334.098 105.596 M301.299 112.801 C 301.299 119.151,301.218 120.223,300.742 120.223 C 300.266 120.223,300.186 119.151,300.186 112.801 C 300.186 106.452,300.266 105.380,300.742 105.380 C 301.218 105.380,301.299 106.452,301.299 112.801 M325.417 112.801 C 325.417 119.151,325.337 120.223,324.861 120.223 C 324.385 120.223,324.304 119.151,324.304 112.801 C 324.304 106.452,324.385 105.380,324.861 105.380 C 325.337 105.380,325.417 106.452,325.417 112.801 M318.738 112.987 C 318.738 119.171,318.658 120.223,318.182 120.223 C 317.706 120.223,317.625 119.171,317.625 112.987 C 317.625 106.803,317.706 105.751,318.182 105.751 C 318.658 105.751,318.738 106.803,318.738 112.987 M279.035 113.389 C 279.035 118.740,278.931 120.250,278.571 120.130 C 278.105 119.975,277.667 108.066,278.087 106.971 C 278.761 105.214,279.035 107.070,279.035 113.389 M69.665 107.244 C 61.916 109.200,57.334 117.320,59.693 124.917 C 64.508 140.430,87.470 136.055,86.358 119.837 C 85.784 111.462,77.553 105.253,69.665 107.244 M336.317 108.024 C 336.838 110.629,336.583 120.223,335.993 120.223 C 335.518 120.223,335.436 119.233,335.436 113.544 C 335.436 107.330,335.766 105.266,336.317 108.024 M320.965 113.729 C 320.965 119.254,320.882 120.223,320.408 120.223 C 319.935 120.223,319.852 119.254,319.852 113.729 C 319.852 108.204,319.935 107.236,320.408 107.236 C 320.882 107.236,320.965 108.204,320.965 113.729 M285.714 114.308 C 285.714 119.318,285.629 120.223,285.158 120.223 C 284.580 120.223,284.276 108.798,284.838 108.235 C 285.517 107.557,285.714 108.928,285.714 114.308 M296.846 114.308 C 296.846 119.318,296.761 120.223,296.289 120.223 C 295.712 120.223,295.408 108.798,295.970 108.235 C 296.648 107.557,296.846 108.928,296.846 114.308 M316.512 115.028 C 316.512 119.398,316.424 120.223,315.955 120.223 C 315.372 120.223,315.080 110.647,315.646 110.080 C 316.353 109.373,316.512 110.280,316.512 115.028 M283.488 115.584 C 283.488 119.460,283.396 120.223,282.931 120.223 C 282.466 120.223,282.375 119.460,282.375 115.584 C 282.375 111.709,282.466 110.946,282.931 110.946 C 283.396 110.946,283.488 111.709,283.488 115.584 M332.096 115.770 C 332.096 119.481,332.004 120.223,331.540 120.223 C 331.076 120.223,330.983 119.481,330.983 115.770 C 330.983 112.059,331.076 111.317,331.540 111.317 C 332.004 111.317,332.096 112.059,332.096 115.770 M75.994 113.506 C 83.613 117.393,81.169 128.708,72.701 128.749 C 66.823 128.777,62.858 122.218,65.596 116.997 C 67.490 113.387,72.478 111.713,75.994 113.506 M298.701 116.698 C 298.701 118.800,298.552 120.223,298.330 120.223 C 298.109 120.223,297.959 118.800,297.959 116.698 C 297.959 114.595,298.109 113.173,298.330 113.173 C 298.552 113.173,298.701 114.595,298.701 116.698 M285.369 131.816 C 285.559 132.478,285.714 133.062,285.714 133.114 C 285.714 133.167,297.987 133.210,312.987 133.210 L 340.260 133.210 340.260 131.911 L 340.260 130.612 312.642 130.612 L 285.024 130.612 285.369 131.816 M285.472 136.547 L 285.075 138.033 312.690 138.033 L 340.305 138.033 340.189 136.642 L 340.074 135.250 312.972 135.155 L 285.869 135.060 285.472 136.547 M307.607 153.061 L 307.607 153.989 291.488 153.989 C 275.251 153.989,274.609 153.937,275.095 152.672 C 275.271 152.213,277.675 152.134,291.454 152.134 L 307.607 152.134 307.607 153.061 " stroke="none" fill="#f9f9f9" fill-rule="evenodd"></path><path id="path3" d="M275.127 127.296 C 270.228 128.721,268.849 136.271,272.847 139.781 C 277.769 144.103,285.714 140.853,285.714 134.518 C 285.714 128.907,280.894 125.618,275.127 127.296 M259.131 153.226 C 254.770 154.281,252.346 158.387,253.579 162.630 C 255.077 167.783,261.692 169.857,265.826 166.469 C 272.179 161.264,267.137 151.289,259.131 153.226 M298.159 166.774 C 294.479 167.770,292.256 171.541,293.107 175.344 C 295.037 183.967,308.349 182.704,308.349 173.897 C 308.349 168.543,303.680 165.279,298.159 166.774 " stroke="none" fill="#fac81d" fill-rule="evenodd"></path><path id="path4" d="M39.054 49.254 C 40.227 49.327,42.147 49.327,43.321 49.254 C 44.494 49.180,43.534 49.120,41.187 49.120 C 38.840 49.120,37.880 49.180,39.054 49.254 M307.700 100.742 C 307.704 101.558,307.780 101.849,307.869 101.387 C 307.958 100.926,307.954 100.258,307.862 99.903 C 307.769 99.548,307.696 99.926,307.700 100.742 M343.228 125.192 C 343.228 130.397,343.313 131.307,343.815 131.500 C 344.582 131.794,377.125 131.794,377.892 131.500 C 378.394 131.307,378.479 130.397,378.479 125.192 L 378.479 119.109 360.853 119.109 L 343.228 119.109 343.228 125.192 M220.656 220.284 C 220.051 220.889,220.750 221.677,226.345 226.705 C 229.610 229.638,232.282 232.175,232.282 232.342 C 232.282 232.741,200.296 258.251,199.814 258.235 C 199.610 258.229,194.601 254.391,188.683 249.707 C 182.764 245.023,177.654 241.190,177.325 241.189 C 176.845 241.188,149.075 262.075,142.950 267.045 L 141.373 268.324 141.373 274.236 C 141.373 277.488,141.498 280.147,141.651 280.146 C 141.804 280.145,149.809 274.134,159.439 266.788 C 169.070 259.442,177.131 253.432,177.352 253.432 C 177.573 253.432,182.630 257.282,188.589 261.988 C 195.807 267.688,199.639 270.488,200.070 270.375 C 200.426 270.282,209.163 263.468,219.486 255.233 C 229.809 246.998,238.628 239.980,239.084 239.639 C 239.897 239.028,240.002 239.099,245.014 243.663 C 248.281 246.638,250.312 248.233,250.661 248.099 C 251.517 247.770,251.476 220.591,250.619 220.262 C 249.816 219.954,220.965 219.975,220.656 220.284 " stroke="none" fill="#4ca2e7" fill-rule="evenodd"></path></g></svg>