<svg id="svg" version="1.1" xmlns="http://www.w3.org/2000/svg" xmlns:xlink="http://www.w3.org/1999/xlink" width="400" height="303.9274924471299" viewBox="0, 0, 400,303.9274924471299"><g id="svgg"><path id="path0" d="M96.638 31.920 C 95.996 32.694,96.053 39.199,96.707 39.677 C 97.320 40.125,115.854 40.158,116.301 39.711 C 116.772 39.240,116.798 32.456,116.330 31.893 C 115.720 31.157,97.250 31.182,96.638 31.920 M369.486 32.266 C 369.486 32.565,369.368 32.939,369.224 33.097 C 367.921 34.521,367.674 36.962,367.674 48.397 L 367.674 59.517 369.940 59.517 L 372.205 59.517 372.214 48.716 L 372.223 37.915 371.236 34.819 C 370.346 32.026,369.486 30.772,369.486 32.266 M133.837 44.706 C 133.291 45.051,132.996 53.720,133.487 55.011 C 133.767 55.746,133.960 55.806,137.158 56.153 C 158.026 58.416,173.480 73.856,175.548 94.508 L 175.916 98.187 181.659 98.187 L 187.402 98.187 187.197 94.789 C 185.620 68.686,165.237 47.375,139.318 44.730 C 135.498 44.340,134.424 44.336,133.837 44.706 M87.462 46.999 C 86.291 47.602,83.468 50.355,82.883 51.468 C 82.218 52.731,82.581 53.622,84.631 55.757 L 86.449 57.650 89.070 55.012 C 90.512 53.561,92.168 52.024,92.749 51.597 C 93.331 51.169,93.735 50.770,93.648 50.711 C 93.560 50.652,92.609 49.769,91.533 48.747 C 89.274 46.603,88.707 46.359,87.462 46.999 M322.659 50.447 C 322.659 51.362,323.014 51.382,337.613 51.292 L 351.208 51.208 351.305 50.529 L 351.402 49.849 337.030 49.849 C 322.906 49.849,322.659 49.859,322.659 50.447 M105.454 58.293 C 104.883 58.863,104.834 59.277,104.834 63.493 L 104.834 68.074 103.889 69.546 C 102.140 72.273,103.463 75.227,106.433 75.227 C 109.769 75.227,111.307 70.775,108.553 69.094 C 108.252 68.910,108.157 67.636,108.157 63.768 C 108.157 58.436,108.125 58.301,106.738 57.877 C 106.275 57.735,105.885 57.861,105.454 58.293 M367.674 70.997 L 367.674 81.571 369.637 81.571 C 370.718 81.571,371.703 81.605,371.828 81.647 C 371.952 81.688,372.098 81.416,372.151 81.042 C 372.212 80.610,372.456 80.363,372.820 80.363 C 373.135 80.363,373.536 80.095,373.711 79.768 C 374.189 78.875,373.987 63.987,373.494 63.823 C 373.207 63.728,373.104 65.505,373.041 71.628 C 372.980 77.645,372.870 79.588,372.583 79.683 C 372.286 79.782,372.205 77.736,372.205 70.116 L 372.205 60.423 369.940 60.423 L 367.674 60.423 367.674 70.997 M298.565 75.855 C 299.213 76.232,299.256 76.737,298.640 76.737 C 298.391 76.737,298.187 76.873,298.187 77.039 C 298.187 77.205,298.391 77.341,298.640 77.341 C 299.257 77.341,299.213 77.849,298.565 78.212 C 298.061 78.495,298.061 78.519,298.565 78.713 C 299.212 78.962,299.262 79.456,298.640 79.456 C 298.391 79.456,298.187 79.592,298.187 79.758 C 298.187 79.924,298.391 80.060,298.640 80.060 C 299.282 80.060,299.207 80.965,298.565 80.976 C 298.093 80.985,298.101 81.036,298.640 81.448 C 299.215 81.888,299.219 81.930,298.707 82.309 C 298.243 82.654,298.232 82.732,298.632 82.885 C 299.226 83.113,299.232 83.686,298.640 83.686 C 298.391 83.686,298.187 83.822,298.187 83.988 C 298.187 84.154,298.391 84.290,298.640 84.290 C 299.232 84.290,299.226 84.863,298.632 85.091 C 298.232 85.244,298.243 85.322,298.707 85.667 C 299.219 86.046,299.215 86.088,298.640 86.528 C 298.101 86.940,298.093 86.991,298.565 86.999 C 298.856 87.005,299.094 87.213,299.094 87.462 C 299.094 87.711,298.856 87.920,298.565 87.925 C 298.087 87.934,298.092 87.977,298.623 88.378 C 299.189 88.806,299.190 88.836,298.656 89.226 C 298.156 89.592,298.150 89.649,298.598 89.821 C 299.219 90.059,299.249 90.634,298.640 90.634 C 298.391 90.634,298.187 90.770,298.187 90.937 C 298.187 91.103,298.391 91.239,298.640 91.239 C 299.232 91.239,299.226 91.811,298.632 92.039 C 298.232 92.192,298.243 92.271,298.707 92.615 C 299.219 92.995,299.215 93.036,298.640 93.476 C 298.101 93.889,298.093 93.940,298.565 93.948 C 298.856 93.953,299.094 94.162,299.094 94.411 C 299.094 94.660,298.856 94.868,298.565 94.874 C 298.093 94.882,298.101 94.933,298.640 95.344 C 299.218 95.785,299.221 95.819,298.695 96.117 C 298.163 96.418,298.163 96.442,298.695 96.849 C 299.174 97.215,299.187 97.309,298.792 97.577 C 298.389 97.851,298.389 97.919,298.792 98.193 C 299.184 98.460,299.166 98.561,298.658 98.948 C 298.139 99.345,301.116 99.396,324.671 99.396 L 351.270 99.396 351.441 105.816 C 351.536 109.347,351.564 118.999,351.505 127.265 C 351.406 141.129,351.437 142.315,351.907 142.554 C 352.188 142.696,359.725 142.840,368.657 142.874 L 384.898 142.935 384.821 118.673 L 384.743 94.411 372.356 94.394 C 365.544 94.384,358.066 94.452,355.740 94.545 L 351.511 94.713 351.422 96.905 L 351.333 99.097 325.591 99.020 L 299.849 98.943 299.770 87.236 L 299.691 75.529 298.864 75.538 C 298.156 75.546,298.113 75.592,298.565 75.855 M324.105 79.079 C 323.960 82.622,324.024 83.082,324.655 83.082 C 324.991 83.082,325.076 82.354,325.076 79.456 C 325.076 74.439,324.307 74.140,324.105 79.079 M326.188 77.236 C 325.786 77.638,325.949 83.143,326.360 83.007 C 326.614 82.922,326.766 82.014,326.825 80.215 C 326.907 77.741,326.691 76.733,326.188 77.236 M311.480 80.488 C 311.480 82.622,311.563 83.082,311.946 83.082 C 312.553 83.082,312.469 78.222,311.858 78.020 C 311.576 77.927,311.480 78.549,311.480 80.488 M320.737 78.457 C 320.294 78.900,320.529 83.082,320.997 83.082 C 321.359 83.082,321.450 82.630,321.450 80.834 C 321.450 78.756,321.217 77.978,320.737 78.457 M327.700 79.047 C 327.187 79.560,327.475 83.129,328.021 83.022 C 328.465 82.935,328.543 82.607,328.505 80.971 C 328.463 79.162,328.204 78.543,327.700 79.047 M340.374 79.062 C 339.936 79.500,340.168 83.082,340.634 83.082 C 340.990 83.082,341.088 82.664,341.088 81.136 C 341.088 79.326,340.838 78.599,340.374 79.062 M313.494 79.658 C 313.056 80.096,313.275 83.082,313.746 83.082 C 314.099 83.082,314.199 82.679,314.199 81.269 C 314.199 79.594,314.004 79.148,313.494 79.658 M367.674 84.605 L 367.674 85.827 369.864 85.738 L 372.054 85.650 372.148 84.517 L 372.242 83.384 369.958 83.384 L 367.674 83.384 367.674 84.605 M382.477 101.813 L 382.477 106.949 368.127 106.949 L 353.776 106.949 353.776 102.014 C 353.776 99.300,353.867 96.989,353.978 96.878 C 354.089 96.767,360.546 96.677,368.328 96.677 L 382.477 96.677 382.477 101.813 M80.238 98.277 C 79.000 99.191,80.163 108.420,82.354 115.062 C 89.391 136.398,110.204 151.930,131.798 151.961 L 133.535 151.964 133.535 146.268 L 133.535 140.572 130.057 140.219 C 109.050 138.090,93.108 122.059,91.372 101.319 C 91.259 99.968,91.052 98.676,90.912 98.449 C 90.531 97.831,81.051 97.678,80.238 98.277 M358.182 113.293 C 359.042 113.293,358.741 115.968,357.855 116.190 C 356.265 116.589,355.589 116.135,355.589 114.668 C 355.589 113.311,356.131 112.855,357.351 113.184 C 357.572 113.244,357.946 113.293,358.182 113.293 M362.181 114.446 C 362.336 116.066,360.660 117.035,359.577 115.952 C 359.184 115.558,359.081 113.830,359.430 113.480 C 360.140 112.770,362.085 113.453,362.181 114.446 M365.802 114.728 C 365.647 117.146,362.840 117.069,362.840 114.647 L 362.840 113.293 364.367 113.293 L 365.894 113.293 365.802 114.728 M381.804 133.362 C 381.897 139.788,381.982 139.547,379.618 139.531 C 377.303 139.515,377.341 139.619,377.341 133.397 C 377.341 127.060,377.184 127.442,379.746 127.556 L 381.722 127.644 381.804 133.362 M225.837 154.103 C 172.689 157.637,148.322 221.058,185.586 258.865 C 215.544 289.259,266.976 280.424,285.268 241.741 C 290.541 230.591,292.775 214.521,289.400 212.016 C 285.870 209.397,283.073 211.916,282.735 218.018 C 280.954 250.132,251.971 273.505,220.544 268.171 C 196.287 264.053,177.727 243.666,176.151 219.407 C 173.460 177.990,216.077 149.513,253.332 167.836 C 258.956 170.601,262.680 169.180,261.820 164.597 C 260.795 159.134,240.255 153.144,225.837 154.103 M263.066 206.813 L 256.495 212.095 256.495 228.684 C 256.495 243.363,256.550 245.329,256.970 245.749 C 257.585 246.364,269.124 246.465,269.728 245.861 C 270.139 245.450,270.274 201.502,269.864 201.521 C 269.739 201.527,266.681 203.908,263.066 206.813 M215.436 215.597 C 213.742 216.875,212.223 218.170,212.060 218.475 C 211.528 219.469,211.839 245.582,212.387 245.928 C 213.082 246.367,224.570 246.307,225.015 245.861 C 225.287 245.589,225.373 242.093,225.358 231.888 L 225.339 218.278 222.259 215.885 C 220.565 214.569,219.030 213.443,218.847 213.382 C 218.665 213.321,217.130 214.318,215.436 215.597 " stroke="none" fill="#0e2a4d" fill-rule="evenodd"></path><path id="path1" d="M322.961 27.672 C 319.225 28.215,314.361 29.441,311.329 30.604 L 308.912 31.530 298.489 31.718 C 286.957 31.925,286.690 31.966,283.912 34.001 C 281.399 35.841,279.456 39.331,279.456 42.005 L 279.456 43.202 284.628 43.202 L 289.800 43.202 287.000 46.131 C 267.555 66.470,263.864 97.248,278.003 121.148 C 280.897 126.040,281.483 126.727,282.270 126.148 C 284.494 124.511,287.440 124.012,289.587 124.909 L 290.634 125.347 290.634 84.277 L 290.634 43.206 313.364 43.129 L 336.094 43.051 336.324 41.458 C 337.855 30.820,352.594 28.223,357.646 37.701 C 359.149 40.522,359.202 41.574,359.209 68.958 L 359.215 94.260 355.456 94.260 C 353.389 94.260,351.634 94.362,351.556 94.486 C 351.479 94.611,353.340 94.636,355.693 94.542 C 358.045 94.448,365.544 94.380,372.356 94.391 L 384.743 94.411 384.894 108.748 C 385.065 124.980,384.781 123.906,387.537 118.731 C 400.500 94.390,395.622 64.058,375.634 44.713 L 372.356 41.541 372.276 50.529 L 372.196 59.517 369.935 59.517 L 367.674 59.517 367.674 48.781 L 367.674 38.046 365.332 36.537 C 353.713 29.048,337.228 25.599,322.961 27.672 M101.444 43.828 L 101.360 47.792 99.245 48.481 C 91.400 51.039,84.868 57.830,82.818 65.559 C 79.127 79.476,88.084 93.450,102.266 95.898 L 104.381 96.263 104.467 99.404 C 104.583 103.571,104.633 103.624,108.431 103.630 C 112.510 103.635,112.601 103.677,113.627 105.963 C 114.869 108.731,114.824 108.909,112.236 111.480 C 109.076 114.619,109.089 114.728,113.098 118.674 C 117.059 122.572,117.017 122.568,120.396 119.332 L 122.923 116.912 124.528 117.550 C 125.411 117.901,126.441 118.308,126.818 118.454 C 127.813 118.841,128.097 119.908,128.097 123.265 C 128.097 127.222,128.053 127.190,133.535 127.190 C 139.070 127.190,138.973 127.266,138.973 122.977 C 138.973 119.085,139.117 118.828,141.952 117.699 C 144.250 116.783,144.227 116.775,147.136 119.643 C 150.057 122.525,150.110 122.517,153.987 118.640 C 157.936 114.691,157.933 114.723,154.683 111.329 C 153.353 109.941,152.266 108.751,152.266 108.684 C 152.266 108.618,152.614 107.690,153.039 106.623 C 154.174 103.774,154.434 103.625,158.281 103.625 C 162.453 103.625,162.236 103.926,162.236 98.164 C 162.236 92.373,162.475 92.681,157.836 92.503 C 153.977 92.356,154.144 92.451,153.060 89.772 C 152.111 87.428,152.214 87.152,155.113 84.299 C 157.822 81.632,157.810 81.557,153.987 77.735 C 150.165 73.913,150.090 73.900,147.423 76.609 C 144.583 79.495,144.326 79.592,141.965 78.660 C 139.115 77.536,138.973 77.287,138.973 73.417 C 138.973 69.279,139.070 69.368,134.424 69.229 L 130.875 69.122 130.671 67.760 C 129.359 59.011,122.554 51.252,113.746 48.462 L 111.631 47.792 111.480 43.911 L 111.329 40.030 106.429 39.947 L 101.528 39.864 101.444 43.828 M298.489 49.799 C 298.296 49.863,298.187 53.590,298.187 60.150 L 298.187 70.401 308.535 70.321 L 318.882 70.242 318.962 60.291 C 319.011 54.170,318.929 50.228,318.749 50.048 C 318.483 49.782,299.248 49.545,298.489 49.799 M337.119 49.772 L 351.429 49.855 351.281 50.630 C 351.185 51.131,351.236 51.302,351.425 51.112 C 352.800 49.738,352.397 49.698,337.156 49.693 L 322.810 49.689 337.119 49.772 M322.888 53.849 C 322.474 54.974,322.612 54.985,337.206 54.985 L 351.402 54.985 351.305 54.305 L 351.208 53.625 337.118 53.547 C 326.005 53.485,322.998 53.549,322.888 53.849 M111.672 56.530 C 121.472 59.557,125.698 71.706,120.044 80.597 C 113.529 90.843,97.984 90.241,92.353 79.526 C 85.478 66.442,97.486 52.148,111.672 56.530 M322.773 57.841 C 322.377 58.874,322.886 58.912,337.178 58.912 L 351.360 58.912 351.360 58.157 L 351.360 57.402 337.151 57.402 C 325.007 57.402,322.917 57.466,322.773 57.841 M104.653 63.746 C 104.653 66.322,104.700 67.375,104.756 66.088 C 104.813 64.800,104.813 62.693,104.756 61.405 C 104.700 60.117,104.653 61.171,104.653 63.746 M108.214 63.955 C 108.183 66.645,108.259 68.910,108.384 68.987 C 108.508 69.065,108.575 67.611,108.531 65.758 C 108.387 59.647,108.272 58.991,108.214 63.955 M371.232 60.038 C 370.613 60.103,369.525 60.104,368.815 60.040 C 368.104 59.977,368.610 59.923,369.940 59.922 C 371.269 59.921,371.850 59.973,371.232 60.038 M372.205 70.116 C 372.205 77.736,372.286 79.782,372.583 79.683 C 372.870 79.588,372.980 77.645,373.041 71.628 C 373.104 65.505,373.207 63.728,373.494 63.823 C 373.987 63.987,374.189 78.875,373.711 79.768 C 373.536 80.095,373.134 80.363,372.818 80.363 C 372.369 80.363,372.198 80.657,372.041 81.705 C 371.868 82.859,371.728 83.065,371.041 83.170 C 370.349 83.277,370.376 83.299,371.242 83.338 C 372.206 83.382,372.239 83.424,372.148 84.517 L 372.054 85.650 369.864 85.738 L 367.674 85.827 367.674 84.605 C 367.674 83.438,367.717 83.382,368.656 83.338 C 369.569 83.296,369.580 83.284,368.807 83.167 C 367.013 82.896,367.769 81.914,369.864 81.795 L 371.752 81.687 369.713 81.629 L 367.674 81.571 367.674 70.997 L 367.674 60.423 369.940 60.423 L 372.205 60.423 372.205 70.116 M323.007 61.295 C 322.782 61.437,322.648 61.808,322.709 62.121 C 322.813 62.666,323.393 62.692,336.993 62.767 C 351.824 62.850,352.003 62.835,351.328 61.572 C 351.009 60.976,323.927 60.711,323.007 61.295 M322.842 65.432 C 322.464 66.418,323.115 66.465,337.199 66.465 L 351.402 66.465 351.305 65.785 L 351.208 65.106 337.118 65.027 C 324.435 64.957,323.009 64.997,322.842 65.432 M322.830 69.152 C 322.120 70.300,322.798 70.406,330.321 70.323 C 337.385 70.244,337.613 70.223,337.613 69.637 C 337.613 68.973,323.232 68.501,322.830 69.152 M312.490 80.514 C 312.491 81.843,312.544 82.349,312.608 81.639 C 312.672 80.928,312.671 79.840,312.606 79.222 C 312.541 78.603,312.489 79.184,312.490 80.514 M320.444 78.474 C 320.067 79.103,320.645 97.583,321.041 97.583 C 321.374 97.583,321.450 96.227,321.450 90.332 C 321.450 83.933,321.394 83.082,320.974 83.082 C 320.572 83.082,320.513 82.705,320.596 80.664 C 320.696 78.214,320.686 78.070,320.444 78.474 M313.067 81.118 C 313.070 81.782,313.132 82.019,313.205 81.643 C 313.277 81.267,313.274 80.723,313.199 80.435 C 313.123 80.146,313.064 80.453,313.067 81.118 M314.286 81.420 C 314.288 82.251,314.347 82.555,314.416 82.096 C 314.486 81.636,314.484 80.957,314.412 80.585 C 314.340 80.213,314.284 80.589,314.286 81.420 M325.868 82.628 C 325.929 83.958,325.979 87.934,325.980 91.465 C 325.982 96.970,326.046 97.885,326.435 97.885 C 326.826 97.885,326.888 96.846,326.888 90.342 C 326.888 83.889,326.825 82.823,326.452 82.966 C 326.118 83.094,325.985 82.791,325.887 81.672 C 325.816 80.869,325.808 81.299,325.868 82.628 M324.028 89.550 C 324.039 97.299,324.070 97.885,324.461 97.885 C 325.000 97.885,325.010 83.134,324.471 82.994 C 324.078 82.892,324.019 83.764,324.028 89.550 M328.097 83.009 C 327.549 83.114,327.569 97.885,328.116 97.885 C 328.666 97.885,328.713 97.172,328.631 90.020 C 328.561 83.902,328.487 82.934,328.097 83.009 M311.551 90.408 C 311.602 95.037,311.743 97.734,311.934 97.734 C 312.124 97.734,312.265 95.037,312.317 90.408 C 312.387 83.986,312.340 83.082,311.934 83.082 C 311.527 83.082,311.480 83.986,311.551 90.408 M313.293 90.483 C 313.293 96.861,313.356 97.885,313.746 97.885 C 314.137 97.885,314.199 96.861,314.199 90.483 C 314.199 84.105,314.137 83.082,313.746 83.082 C 313.356 83.082,313.293 84.105,313.293 90.483 M340.251 90.408 C 340.303 95.037,340.444 97.734,340.634 97.734 C 340.825 97.734,340.966 95.037,341.017 90.408 C 341.088 83.986,341.041 83.082,340.634 83.082 C 340.228 83.082,340.181 83.986,340.251 90.408 M307.855 90.785 C 307.855 96.895,307.918 97.885,308.308 97.885 C 308.698 97.885,308.761 96.895,308.761 90.785 C 308.761 84.676,308.698 83.686,308.308 83.686 C 307.918 83.686,307.855 84.676,307.855 90.785 M341.994 90.937 C 341.994 96.912,342.057 97.885,342.447 97.885 C 342.837 97.885,342.900 96.912,342.900 90.937 C 342.900 84.961,342.837 83.988,342.447 83.988 C 342.057 83.988,341.994 84.961,341.994 90.937 M302.552 84.675 C 302.205 85.580,302.568 97.684,302.946 97.810 C 303.240 97.908,303.323 96.437,303.323 91.113 C 303.323 84.843,303.125 83.184,302.552 84.675 M322.243 84.755 C 321.940 85.544,322.035 97.085,322.349 97.581 C 323.085 98.746,323.274 97.266,323.193 90.940 C 323.116 84.827,322.858 83.151,322.243 84.755 M336.757 84.491 C 336.290 84.959,336.533 97.885,337.009 97.885 C 337.398 97.885,337.462 96.928,337.462 91.088 C 337.462 84.882,337.357 83.892,336.757 84.491 M349.245 91.088 C 349.245 96.432,349.328 97.908,349.622 97.810 C 349.909 97.714,350.000 96.096,350.000 91.088 C 350.000 86.079,349.909 84.461,349.622 84.366 C 349.328 84.267,349.245 85.744,349.245 91.088 M329.440 85.583 C 329.054 86.588,329.458 97.734,329.880 97.734 C 330.226 97.734,330.330 96.578,330.446 91.465 C 330.574 85.780,330.540 85.196,330.088 85.196 C 329.813 85.196,329.522 85.370,329.440 85.583 M309.668 91.692 C 309.668 96.996,309.733 97.885,310.121 97.885 C 310.509 97.885,310.574 96.996,310.574 91.692 C 310.574 86.388,310.509 85.498,310.121 85.498 C 309.733 85.498,309.668 86.388,309.668 91.692 M345.619 91.667 C 345.619 97.030,345.682 97.885,346.079 97.885 C 346.697 97.885,346.617 85.780,345.997 85.574 C 345.703 85.476,345.619 86.826,345.619 91.667 M318.731 91.843 C 318.731 97.012,318.797 97.885,319.184 97.885 C 319.572 97.885,319.637 97.012,319.637 91.843 C 319.637 86.673,319.572 85.801,319.184 85.801 C 318.797 85.801,318.731 86.673,318.731 91.843 M338.369 91.843 C 338.369 97.012,338.434 97.885,338.822 97.885 C 339.209 97.885,339.275 97.012,339.275 91.843 C 339.275 86.673,339.209 85.801,338.822 85.801 C 338.434 85.801,338.369 86.673,338.369 91.843 M333.000 91.893 C 333.061 96.198,333.179 97.717,333.459 97.810 C 333.753 97.908,333.837 96.618,333.837 92.019 C 333.837 86.924,333.773 86.103,333.377 86.103 C 332.979 86.103,332.928 86.875,333.000 91.893 M300.793 87.172 C 300.492 87.956,300.584 97.084,300.898 97.581 C 301.608 98.702,301.826 97.300,301.745 92.147 C 301.666 87.191,301.373 85.659,300.793 87.172 M138.119 87.969 C 145.346 91.336,146.958 100.908,141.213 106.342 C 135.705 111.551,126.547 109.804,123.376 102.937 C 119.076 93.629,128.889 83.667,138.119 87.969 M347.432 92.447 C 347.432 96.704,347.517 97.907,347.810 97.810 C 348.092 97.715,348.187 96.368,348.187 92.447 C 348.187 88.526,348.092 87.179,347.810 87.085 C 347.517 86.987,347.432 88.191,347.432 92.447 M334.743 92.598 C 334.743 97.096,334.811 97.885,335.196 97.885 C 335.582 97.885,335.650 97.096,335.650 92.598 C 335.650 88.100,335.582 87.311,335.196 87.311 C 334.811 87.311,334.743 88.100,334.743 92.598 M306.237 88.146 C 305.808 88.842,306.038 97.885,306.486 97.885 C 306.883 97.885,306.949 97.176,306.949 92.900 C 306.949 88.455,306.773 87.280,306.237 88.146 M315.106 92.900 C 315.106 97.130,315.174 97.885,315.559 97.885 C 315.943 97.885,316.012 97.130,316.012 92.900 C 316.012 88.671,315.943 87.915,315.559 87.915 C 315.174 87.915,315.106 88.671,315.106 92.900 M331.185 93.555 C 331.307 99.557,332.024 99.665,332.024 93.681 C 332.024 90.065,331.955 89.426,331.562 89.426 C 331.167 89.426,331.113 90.016,331.185 93.555 M304.361 90.426 C 304.031 91.285,304.376 97.683,304.758 97.810 C 305.048 97.906,305.136 97.010,305.136 93.983 C 305.136 90.370,304.863 89.117,304.361 90.426 M343.807 94.109 C 343.807 97.264,343.881 97.885,344.260 97.885 C 344.638 97.885,344.713 97.264,344.713 94.109 C 344.713 90.953,344.638 90.332,344.260 90.332 C 343.881 90.332,343.807 90.953,343.807 94.109 M131.584 91.984 C 128.088 92.922,126.114 96.822,127.354 100.339 C 129.763 107.167,139.866 105.430,139.866 98.187 C 139.866 93.623,136.070 90.780,131.584 91.984 M317.125 92.039 C 316.723 92.441,316.886 97.644,317.296 97.508 C 317.548 97.425,317.703 96.545,317.762 94.868 C 317.844 92.530,317.622 91.542,317.125 92.039 M175.675 100.529 C 173.763 122.157,158.319 138.087,137.214 140.200 L 133.535 140.569 133.535 146.312 L 133.535 152.055 136.844 151.854 C 164.468 150.176,187.267 126.647,187.309 99.773 L 187.311 98.187 181.597 98.187 L 175.882 98.187 175.675 100.529 M312.764 99.018 C 319.868 99.063,331.492 99.063,338.595 99.018 C 345.699 98.973,339.887 98.936,325.680 98.936 C 311.473 98.936,305.661 98.973,312.764 99.018 M311.405 99.622 C 318.758 99.667,330.789 99.667,338.142 99.622 C 345.495 99.577,339.479 99.540,324.773 99.540 C 310.068 99.540,304.052 99.577,311.405 99.622 M305.686 105.363 L 306.278 106.193 328.819 106.114 L 351.360 106.035 351.360 105.283 L 351.360 104.532 328.227 104.532 L 305.095 104.532 305.686 105.363 M306.949 109.215 L 306.949 109.970 329.154 109.970 L 351.360 109.970 351.360 110.984 L 351.360 111.997 339.804 112.215 C 333.448 112.335,323.303 112.395,317.260 112.350 C 306.669 112.270,306.257 112.289,305.842 112.856 C 305.417 113.437,305.679 113.445,328.386 113.522 L 351.360 113.599 351.360 114.804 L 351.360 116.009 324.849 116.086 C 298.566 116.162,298.338 116.168,298.338 116.767 C 298.338 117.366,298.566 117.372,324.849 117.449 L 351.360 117.526 351.360 118.731 L 351.360 119.936 324.849 120.013 C 298.566 120.090,298.338 120.096,298.338 120.695 C 298.338 121.294,298.566 121.300,324.842 121.376 L 351.345 121.453 351.435 126.512 C 351.485 129.295,351.541 126.609,351.560 120.544 C 351.580 114.479,351.533 109.279,351.457 108.988 C 351.327 108.490,350.008 108.459,329.134 108.459 L 306.949 108.459 306.949 109.215 M356.269 113.205 C 355.198 113.410,355.262 115.918,356.344 116.190 C 357.943 116.591,358.610 116.137,358.610 114.647 C 358.610 113.680,358.488 113.293,358.182 113.293 C 357.946 113.293,357.572 113.244,357.351 113.184 C 357.130 113.125,356.643 113.134,356.269 113.205 M359.430 113.480 C 358.555 114.355,359.466 116.314,360.749 116.314 C 362.760 116.314,362.870 113.502,360.865 113.354 C 360.194 113.305,359.549 113.362,359.430 113.480 M362.840 114.647 C 362.840 117.069,365.647 117.146,365.802 114.728 L 365.894 113.293 364.367 113.293 L 362.840 113.293 362.840 114.647 M298.492 124.015 C 297.404 125.326,298.048 125.389,311.747 125.305 L 324.622 125.227 324.622 124.471 L 324.622 123.716 311.747 123.637 C 300.565 123.569,298.821 123.619,298.492 124.015 M377.555 127.681 C 377.152 128.085,377.305 138.869,377.719 139.210 C 378.160 139.573,380.968 139.648,381.513 139.311 C 381.793 139.137,381.866 137.651,381.804 133.362 L 381.722 127.644 379.746 127.556 C 378.658 127.507,377.673 127.564,377.555 127.681 M293.101 131.118 C 293.043 132.637,292.233 134.212,290.927 135.347 L 290.057 136.103 292.449 138.049 C 312.476 154.343,342.564 156.743,363.553 143.720 L 364.718 142.996 361.333 142.803 C 359.471 142.696,356.762 142.693,355.315 142.796 C 351.207 143.087,351.360 143.306,351.360 137.149 L 351.360 132.024 322.375 132.024 L 293.390 132.024 293.271 130.891 C 293.157 129.793,293.151 129.799,293.101 131.118 M321.991 135.924 C 327.834 138.930,325.813 147.432,319.256 147.432 C 314.474 147.432,311.374 142.736,313.459 138.652 C 314.941 135.749,319.078 134.426,321.991 135.924 M242.598 223.135 C 236.661 227.927,237.166 227.671,235.792 226.579 C 235.169 226.084,234.538 225.680,234.388 225.680 C 233.870 225.680,234.220 245.598,234.743 245.928 C 235.439 246.368,246.926 246.306,247.372 245.861 C 247.782 245.451,247.916 219.327,247.508 219.346 C 247.383 219.352,245.174 221.057,242.598 223.135 M196.148 230.290 L 189.728 235.185 189.728 240.342 C 189.728 243.950,189.837 245.607,190.091 245.861 C 190.603 246.373,202.147 246.373,202.659 245.861 C 203.068 245.452,203.201 225.371,202.795 225.386 C 202.670 225.391,199.679 227.597,196.148 230.290 " stroke="none" fill="#9ac8b5" fill-rule="evenodd"></path><path id="path2" d="M345.015 31.980 C 340.935 32.857,336.934 37.220,336.324 41.458 L 336.094 43.051 313.364 43.129 L 290.634 43.206 290.634 84.390 L 290.634 125.574 291.418 126.307 C 292.535 127.350,293.011 128.404,293.238 130.337 L 293.437 132.024 322.398 132.024 L 351.360 132.024 351.360 126.739 L 351.360 121.453 324.849 121.376 C 298.566 121.300,298.338 121.294,298.338 120.695 C 298.338 120.096,298.566 120.090,324.849 120.013 L 351.360 119.936 351.360 118.731 L 351.360 117.526 324.849 117.449 C 298.566 117.372,298.338 117.366,298.338 116.767 C 298.338 116.168,298.566 116.162,324.849 116.086 L 351.360 116.009 351.360 114.802 L 351.360 113.595 328.416 113.595 C 306.234 113.595,305.439 113.615,304.473 114.183 C 299.966 116.834,294.476 114.105,294.476 109.215 C 294.476 104.462,299.976 101.465,304.114 103.963 C 305.015 104.507,306.074 104.532,328.208 104.532 L 351.360 104.532 351.360 102.115 L 351.360 99.698 324.773 99.698 C 302.038 99.698,298.187 99.636,298.187 99.270 C 298.187 99.034,298.357 98.773,298.565 98.689 C 298.849 98.573,298.831 98.455,298.489 98.210 C 298.087 97.921,298.087 97.849,298.489 97.560 C 298.831 97.315,298.849 97.197,298.565 97.082 C 298.357 96.997,298.187 96.747,298.187 96.526 C 298.187 96.304,298.357 96.044,298.565 95.947 C 298.867 95.806,298.867 95.735,298.565 95.594 C 298.357 95.497,298.187 95.237,298.187 95.015 C 298.187 94.794,298.357 94.543,298.565 94.459 C 298.849 94.344,298.831 94.226,298.489 93.981 C 298.087 93.692,298.087 93.619,298.489 93.330 C 298.831 93.086,298.849 92.968,298.565 92.852 C 298.357 92.768,298.187 92.518,298.187 92.296 C 298.187 92.075,298.357 91.824,298.565 91.740 C 298.853 91.623,298.840 91.515,298.509 91.285 C 298.149 91.034,298.143 90.901,298.470 90.506 C 298.735 90.188,298.753 90.030,298.526 90.030 C 298.064 90.030,298.095 89.211,298.565 89.021 C 298.850 88.906,298.831 88.786,298.489 88.537 C 298.090 88.246,298.097 88.160,298.542 87.818 C 299.014 87.455,299.014 87.407,298.542 87.084 C 298.096 86.779,298.090 86.698,298.489 86.397 C 298.831 86.140,298.850 86.019,298.565 85.903 C 298.357 85.819,298.187 85.569,298.187 85.347 C 298.187 85.126,298.357 84.876,298.565 84.791 C 298.853 84.674,298.840 84.566,298.509 84.336 C 298.149 84.086,298.143 83.952,298.470 83.558 C 298.735 83.239,298.753 83.082,298.526 83.082 C 298.064 83.082,298.095 82.263,298.565 82.072 C 298.853 81.955,298.840 81.847,298.509 81.617 C 298.174 81.384,298.155 81.218,298.426 80.892 C 298.694 80.570,298.690 80.381,298.409 80.101 C 298.120 79.812,298.138 79.666,298.492 79.421 C 298.831 79.185,298.849 79.070,298.565 78.955 C 298.095 78.764,298.064 77.946,298.526 77.946 C 298.753 77.946,298.735 77.788,298.470 77.469 C 298.143 77.075,298.149 76.941,298.509 76.691 C 298.840 76.461,298.853 76.353,298.565 76.236 C 297.885 75.960,298.133 75.177,298.867 75.281 L 299.547 75.378 299.626 87.085 L 299.705 98.792 325.519 98.792 L 351.333 98.792 351.422 96.601 L 351.511 94.411 355.363 94.326 L 359.215 94.242 359.209 68.949 C 359.205 53.786,359.082 42.822,358.902 41.574 C 357.945 34.959,351.591 30.568,345.015 31.980 M318.749 50.048 C 318.929 50.228,319.011 54.170,318.962 60.291 L 318.882 70.242 308.535 70.321 L 298.187 70.401 298.187 60.150 C 298.187 53.590,298.296 49.863,298.489 49.799 C 299.248 49.545,318.483 49.782,318.749 50.048 M351.511 50.453 L 351.511 51.208 337.275 51.287 C 322.254 51.370,322.031 51.351,322.536 50.035 C 322.708 49.586,324.026 49.548,337.118 49.619 L 351.511 49.698 351.511 50.453 M351.305 54.305 L 351.402 54.985 337.206 54.985 C 326.122 54.985,322.982 54.902,322.879 54.607 C 322.484 53.475,322.603 53.466,337.118 53.547 L 351.208 53.625 351.305 54.305 M104.079 55.890 C 94.843 57.170,88.636 66.333,90.797 75.498 C 94.047 89.285,112.476 92.499,120.044 80.597 C 127.528 68.828,117.928 53.971,104.079 55.890 M351.360 58.157 L 351.360 58.912 337.178 58.912 C 322.886 58.912,322.377 58.874,322.773 57.841 C 322.917 57.466,325.007 57.402,337.151 57.402 L 351.360 57.402 351.360 58.157 M107.432 57.935 C 108.271 58.495,108.459 59.631,108.459 64.133 C 108.459 68.400,108.509 68.834,109.062 69.334 C 111.529 71.567,109.142 76.007,105.810 75.382 C 103.229 74.898,102.070 71.570,103.776 69.542 C 104.509 68.670,104.532 68.509,104.532 64.060 C 104.532 58.723,104.844 57.713,106.495 57.713 C 106.828 57.713,107.249 57.813,107.432 57.935 M368.815 60.040 C 369.525 60.104,370.613 60.103,371.232 60.038 C 371.850 59.973,371.269 59.921,369.940 59.922 C 368.610 59.923,368.104 59.977,368.815 60.040 M351.328 61.572 C 352.003 62.835,351.824 62.850,336.993 62.767 C 323.393 62.692,322.813 62.666,322.709 62.121 C 322.511 61.094,323.282 61.036,337.225 61.032 C 350.229 61.027,351.053 61.059,351.328 61.572 M351.305 65.785 L 351.402 66.465 337.199 66.465 C 323.115 66.465,322.464 66.418,322.842 65.432 C 323.009 64.997,324.435 64.957,337.118 65.027 L 351.208 65.106 351.305 65.785 M337.613 69.637 C 337.613 70.483,323.165 70.757,322.843 69.918 C 322.469 68.944,323.024 68.872,330.308 68.952 C 337.385 69.031,337.613 69.052,337.613 69.637 M324.810 86.734 C 324.695 97.683,324.670 98.185,324.252 97.766 C 324.000 97.514,323.817 76.157,324.063 75.758 C 324.809 74.551,324.920 76.180,324.810 86.734 M326.888 87.462 C 326.888 95.977,326.814 97.885,326.483 97.885 C 326.078 97.885,325.478 77.912,325.864 77.287 C 326.762 75.834,326.888 77.087,326.888 87.462 M312.425 87.769 C 312.312 97.495,312.275 98.039,311.762 97.721 C 311.167 97.354,311.411 77.888,312.009 78.004 C 312.502 78.099,312.530 78.755,312.425 87.769 M321.450 87.915 C 321.450 95.843,321.377 97.583,321.041 97.583 C 320.645 97.583,320.067 79.103,320.444 78.474 C 321.308 77.033,321.450 78.367,321.450 87.915 M328.630 88.302 C 328.574 94.807,328.448 97.718,328.217 97.795 C 327.894 97.902,327.375 79.310,327.686 78.790 C 327.756 78.672,328.015 78.654,328.262 78.748 C 328.646 78.896,328.698 80.241,328.630 88.302 M341.016 88.218 C 340.965 94.207,340.828 97.583,340.634 97.583 C 340.441 97.583,340.304 94.207,340.252 88.218 C 340.182 79.982,340.228 78.852,340.634 78.852 C 341.041 78.852,341.087 79.982,341.016 88.218 M314.261 79.834 C 314.610 80.873,314.119 97.885,313.740 97.885 C 313.430 97.885,313.324 96.033,313.235 89.048 C 313.115 79.737,313.130 79.456,313.746 79.456 C 313.960 79.456,314.192 79.626,314.261 79.834 M367.976 82.438 C 367.976 83.083,369.299 83.409,370.921 83.162 C 372.948 82.854,372.201 81.873,369.940 81.873 C 368.223 81.873,367.976 81.944,367.976 82.438 M154.820 84.668 L 153.625 85.952 154.909 84.757 C 156.103 83.647,156.332 83.384,156.104 83.384 C 156.054 83.384,155.476 83.961,154.820 84.668 M308.761 90.785 C 308.761 96.895,308.698 97.885,308.308 97.885 C 307.918 97.885,307.855 96.895,307.855 90.785 C 307.855 84.676,307.918 83.686,308.308 83.686 C 308.698 83.686,308.761 84.676,308.761 90.785 M342.900 90.937 C 342.900 96.912,342.837 97.885,342.447 97.885 C 342.057 97.885,341.994 96.912,341.994 90.937 C 341.994 84.961,342.057 83.988,342.447 83.988 C 342.837 83.988,342.900 84.961,342.900 90.937 M303.323 91.113 C 303.323 96.437,303.240 97.908,302.946 97.810 C 302.568 97.684,302.205 85.580,302.552 84.675 C 303.125 83.184,303.323 84.843,303.323 91.113 M323.193 90.940 C 323.274 97.266,323.085 98.746,322.349 97.581 C 322.035 97.085,321.940 85.544,322.243 84.755 C 322.858 83.151,323.116 84.827,323.193 90.940 M337.462 91.088 C 337.462 96.928,337.398 97.885,337.009 97.885 C 336.533 97.885,336.290 84.959,336.757 84.491 C 337.357 83.892,337.462 84.882,337.462 91.088 M350.000 91.088 C 350.000 96.096,349.909 97.714,349.622 97.810 C 349.328 97.908,349.245 96.432,349.245 91.088 C 349.245 85.744,349.328 84.267,349.622 84.366 C 349.909 84.461,350.000 86.079,350.000 91.088 M330.446 91.465 C 330.330 96.578,330.226 97.734,329.880 97.734 C 329.534 97.734,329.441 96.661,329.374 91.852 C 329.286 85.546,329.323 85.196,330.088 85.196 C 330.540 85.196,330.574 85.780,330.446 91.465 M310.574 91.692 C 310.574 96.996,310.509 97.885,310.121 97.885 C 309.733 97.885,309.668 96.996,309.668 91.692 C 309.668 86.388,309.733 85.498,310.121 85.498 C 310.509 85.498,310.574 86.388,310.574 91.692 M346.456 91.792 C 346.527 97.080,346.477 97.885,346.079 97.885 C 345.682 97.885,345.619 97.030,345.619 91.667 C 345.619 86.826,345.703 85.476,345.997 85.574 C 346.279 85.668,346.395 87.246,346.456 91.792 M319.637 91.843 C 319.637 97.012,319.572 97.885,319.184 97.885 C 318.797 97.885,318.731 97.012,318.731 91.843 C 318.731 86.673,318.797 85.801,319.184 85.801 C 319.572 85.801,319.637 86.673,319.637 91.843 M339.275 91.843 C 339.275 97.012,339.209 97.885,338.822 97.885 C 338.434 97.885,338.369 97.012,338.369 91.843 C 338.369 86.673,338.434 85.801,338.822 85.801 C 339.209 85.801,339.275 86.673,339.275 91.843 M333.837 92.019 C 333.837 96.618,333.753 97.908,333.459 97.810 C 332.840 97.604,332.759 86.103,333.377 86.103 C 333.773 86.103,333.837 86.924,333.837 92.019 M301.745 92.147 C 301.826 97.300,301.608 98.702,300.898 97.581 C 300.584 97.084,300.492 87.956,300.793 87.172 C 301.373 85.659,301.666 87.191,301.745 92.147 M129.575 87.706 C 117.950 92.588,121.009 109.182,133.535 109.182 C 148.166 109.182,148.461 87.581,133.837 87.082 C 131.692 87.009,130.990 87.111,129.575 87.706 M348.187 92.447 C 348.187 96.368,348.092 97.715,347.810 97.810 C 347.517 97.907,347.432 96.704,347.432 92.447 C 347.432 88.191,347.517 86.987,347.810 87.085 C 348.092 87.179,348.187 88.526,348.187 92.447 M335.650 92.598 C 335.650 97.096,335.582 97.885,335.196 97.885 C 334.811 97.885,334.743 97.096,334.743 92.598 C 334.743 88.100,334.811 87.311,335.196 87.311 C 335.582 87.311,335.650 88.100,335.650 92.598 M306.949 92.900 C 306.949 97.176,306.883 97.885,306.486 97.885 C 306.038 97.885,305.808 88.842,306.237 88.146 C 306.773 87.280,306.949 88.455,306.949 92.900 M316.012 92.900 C 316.012 97.130,315.943 97.885,315.559 97.885 C 315.174 97.885,315.106 97.130,315.106 92.900 C 315.106 88.671,315.174 87.915,315.559 87.915 C 315.943 87.915,316.012 88.671,316.012 92.900 M332.024 93.681 C 332.024 96.950,331.937 97.906,331.647 97.810 C 331.029 97.605,330.947 89.426,331.562 89.426 C 331.955 89.426,332.024 90.065,332.024 93.681 M305.136 93.983 C 305.136 97.010,305.048 97.906,304.758 97.810 C 304.376 97.683,304.031 91.285,304.361 90.426 C 304.863 89.117,305.136 90.370,305.136 93.983 M344.713 94.109 C 344.713 97.264,344.638 97.885,344.260 97.885 C 343.881 97.885,343.807 97.264,343.807 94.109 C 343.807 90.953,343.881 90.332,344.260 90.332 C 344.638 90.332,344.713 90.953,344.713 94.109 M135.567 92.003 C 142.374 94.847,140.837 104.537,133.573 104.572 C 127.647 104.600,124.761 98.022,128.816 93.730 C 130.649 91.790,133.383 91.091,135.567 92.003 M317.762 94.868 C 317.703 96.545,317.548 97.425,317.296 97.508 C 316.886 97.644,316.723 92.441,317.125 92.039 C 317.622 91.542,317.844 92.530,317.762 94.868 M306.579 106.210 C 306.487 106.303,306.555 106.846,306.731 107.419 L 307.050 108.459 329.205 108.459 L 351.360 108.459 351.360 107.251 L 351.360 106.042 329.053 106.042 C 316.785 106.042,306.672 106.118,306.579 106.210 M306.872 110.650 C 306.791 111.023,306.634 111.540,306.525 111.799 C 306.278 112.378,321.209 112.565,339.804 112.215 L 351.360 111.997 351.360 110.984 L 351.360 109.970 329.189 109.970 L 307.019 109.970 306.872 110.650 M324.622 124.471 L 324.622 125.227 311.747 125.305 C 300.565 125.374,298.821 125.324,298.492 124.928 C 297.404 123.616,298.048 123.553,311.747 123.637 L 324.622 123.716 324.622 124.471 " stroke="none" fill="#f9f9f9" fill-rule="evenodd"></path><path id="path3" d="M299.245 103.327 C 295.101 104.229,293.165 108.857,295.434 112.435 C 297.883 116.296,304.376 116.000,306.343 111.937 C 308.629 107.213,304.485 102.186,299.245 103.327 M284.139 125.062 C 277.221 128.369,280.777 137.944,288.395 136.521 C 294.003 135.473,294.801 127.158,289.511 124.888 C 288.125 124.294,285.575 124.376,284.139 125.062 M316.758 135.668 C 314.211 136.409,312.331 139.812,312.949 142.562 C 314.559 149.726,325.378 148.705,325.378 141.390 C 325.378 137.003,321.353 134.332,316.758 135.668 " stroke="none" fill="#fbc81d" fill-rule="evenodd"></path><path id="path4" d="M323.974 78.701 C 323.973 80.196,324.024 80.846,324.088 80.145 C 324.151 79.444,324.152 78.220,324.090 77.426 C 324.027 76.632,323.975 77.205,323.974 78.701 M325.762 78.852 C 325.762 79.600,325.821 79.906,325.893 79.532 C 325.965 79.158,325.965 78.546,325.893 78.172 C 325.821 77.798,325.762 78.104,325.762 78.852 M328.469 80.363 C 328.469 80.944,328.531 81.182,328.607 80.891 C 328.683 80.600,328.683 80.125,328.607 79.834 C 328.531 79.543,328.469 79.781,328.469 80.363 M353.978 96.878 C 353.867 96.989,353.776 99.300,353.776 102.014 L 353.776 106.949 368.127 106.949 L 382.477 106.949 382.477 101.813 L 382.477 96.677 368.328 96.677 C 360.546 96.677,354.089 96.767,353.978 96.878 M253.776 179.583 C 253.776 179.823,255.942 181.966,258.588 184.345 C 261.235 186.724,263.376 188.838,263.346 189.042 C 263.317 189.246,257.390 194.105,250.176 199.840 L 237.059 210.266 235.976 209.443 C 235.381 208.990,231.317 205.797,226.946 202.346 C 222.574 198.896,218.864 196.073,218.701 196.073 C 218.537 196.073,211.884 201.048,203.915 207.128 L 189.426 218.184 189.426 222.989 C 189.426 226.062,189.537 227.795,189.735 227.795 C 189.905 227.795,196.393 222.952,204.152 217.034 C 211.912 211.116,218.400 206.223,218.571 206.160 C 218.742 206.098,222.825 209.168,227.644 212.983 C 232.462 216.799,236.678 219.925,237.011 219.930 C 237.365 219.936,244.253 214.656,253.554 207.251 C 262.318 200.272,269.564 194.562,269.656 194.562 C 269.747 194.562,271.608 196.193,273.790 198.187 C 279.357 203.273,278.875 204.009,278.780 190.559 L 278.701 179.305 266.239 179.226 C 255.547 179.159,253.776 179.209,253.776 179.583 " stroke="none" fill="#4da2e6" fill-rule="evenodd"></path></g></svg>