<?xml version="1.0" encoding="utf-8"?>
<!-- Generator: Adobe Illustrator 26.2.1, SVG Export Plug-In . SVG Version: 6.00 Build 0)  -->
<svg version="1.1" id="svg" xmlns="http://www.w3.org/2000/svg" xmlns:xlink="http://www.w3.org/1999/xlink" x="0px" y="0px"
	 viewBox="0 0 580 525" style="enable-background:new 0 0 580 525;" xml:space="preserve">
<style type="text/css">
	.st0{fill-rule:evenodd;clip-rule:evenodd;fill:#0E2B4D;}
	.st1{fill-rule:evenodd;clip-rule:evenodd;fill:#9AC8B5;}
	.st2{fill-rule:evenodd;clip-rule:evenodd;fill:#F9F9F9;}
	.st3{fill-rule:evenodd;clip-rule:evenodd;fill:#4CA2E8;}
</style>
<g>
	<path class="st0" d="M43.6,68.4c-6,5.8-6,7.4-0.5,12.9l3,3l4.7-4.8c2.6-2.6,5.6-5.5,6.7-6.3l2-1.5L55.8,68
		C50.5,62.8,49.3,62.8,43.6,68.4"/>
	<g>
		<path class="st0" d="M65,36.8c-1,1-0.9,13.7,0,14.4c1.5,1.2,35.4,0.5,36.4-0.7c1.1-1.5,0.9-12.1-0.3-13.5
			C100.1,35.8,66.2,35.6,65,36.8"/>
		<path class="st0" d="M133.6,60.4c-1.3,0.8-1.5,19.2-0.3,20.2c0.4,0.3,2.7,0.7,5.2,0.9c37.5,2.8,67.6,32.4,71.5,70.5l0.7,6.7h10.3
			h10.3v-4.7c0-39.5-31.7-79.5-71.7-90.3C150.3,61,135.6,59.2,133.6,60.4"/>
		<path class="st0" d="M80.6,85.6c-0.6,0.7-0.8,3.4-1,10c-0.2,8.6-0.2,9.1-1.6,10.7c-3.5,4.1-0.6,10.3,4.7,10.3
			c5.8,0,8.6-6.5,4.6-10.7c-1-1.1-1.1-2-1.1-9.9c0-7-0.2-9-0.9-10C84.4,84.4,81.8,84.2,80.6,85.6"/>
		<path class="st0" d="M34.4,159.5c-1,1.2-0.4,11.3,1.1,18.9c8.9,44,46.3,76.8,90.5,79.4l6.6,0.4v-10.8v-10.8h-3.3
			c-36.6,0-70.1-32.2-74-71.1c-0.3-2.9-0.8-5.6-1.2-6.1C53.1,158.2,35.4,158.2,34.4,159.5"/>
		<path class="st1" d="M76.9,51.7l-3,0.2v7v7l-4.4,1.5c-44,14.9-41,76.8,4.1,87l5.6,1.3l0.2,5.8c0.2,7.3,0.2,7.3,6.3,7.3
			c4.7,0,8.8,0.7,9.3,1.6c0.1,0.2,0.9,2.2,1.7,4.3l1.4,3.8l-4.5,4.7c-5.9,6.2-6,6,1.6,13.4c7.3,7.2,6.9,7.2,12.8,1.5
			c5.4-5.1,5.1-5.1,10.8-2.3l3.2,1.5l0.3,6.7c0.4,8.6-0.1,8.3,10.5,8.3c10.1,0,9.8,0.2,9.8-7.3c0-7.5,0.2-7.9,4.9-9.8
			c5.1-2,4.6-2.1,9,2.2c6.8,6.7,6.7,6.7,14.5-1.4c6.3-6.5,6.3-6.7,0.7-12.5c-4.8-4.9-4.9-5.2-2.6-10.3c1.9-4.3,2.1-4.4,9.7-4.4
			c7,0,6.7,0.4,6.7-9.9c0-10.6,0.4-10.1-8.3-10.3l-6.5-0.2l-1.6-3.7c-2.3-5.1-2.2-5.4,2.6-10.4c5.6-5.7,5.6-5.7-1.6-12.8
			c-7.2-7.2-7.1-7.1-12.9-1.5c-4.9,4.8-4.8,4.8-9.9,2.8c-4.6-1.8-4.8-2.2-4.8-9.4c0-7.5,0.1-7.4-8.4-7.7c-6.5-0.3-6.6-0.3-6.7-1.7
			c-2-16.1-14.4-30.8-30.6-36.2L92,65.9v-7v-7h-5.3c-2.9,0-5.7-0.1-6.1-0.2C80.2,51.6,78.5,51.6,76.9,51.7"/>
		<path class="st1" d="M90.2,81.5c16.6,3.9,26.6,22.1,21.1,38.3c-8.6,25.2-43.1,27.5-54.8,3.6C45.3,100.8,65.5,75.7,90.2,81.5"/>
		<path class="st1" d="M141.9,140.5c12.3,6.1,15.3,22.3,5.9,32.5c-9.6,10.5-27.1,8-33.4-4.7C105.7,150.5,124.2,131.7,141.9,140.5"/>
		<path class="st1" d="M129.1,147.5c-10.1,3.1-11.2,17.3-1.8,22.3c2.3,1.2,8.5,1.2,10.7,0C150.8,162.9,142.9,143.2,129.1,147.5"/>
		<path class="st1" d="M210.3,163.2c-3.4,40.5-36.5,73.1-74.4,73.3l-3.2,0v10.7V258l2.7,0c49.5-0.2,95.2-44.2,95.8-92l0.1-7.1
			l-10.2-0.2l-10.2-0.2L210.3,163.2"/>
		<path class="st2" d="M74,82.1c-17.6,6-25.6,24.9-17.6,41.3c13.9,28.2,56.1,18.4,56.1-13.1C112.6,90.1,92.9,75.7,74,82.1"/>
		<path class="st0" d="M85.6,85.7c0.5,0.6,0.7,3.6,0.7,10.1c0,5.2,0.2,9.2,0.5,9.2c3.5,0,3.4,8.5-0.1,11c-6.2,4.4-13.5-4.1-8.6-10
			c1.3-1.6,1.4-1.9,1.4-10.4c0-8.5,0-8.8,1.3-10.1C82.4,84,84.4,84.1,85.6,85.7"/>
		<path class="st2" d="M126,139.3c-17.4,6.5-18.6,30.6-1.9,38.4c17.3,8.1,35.3-10.4,27.1-27.8C146.9,140.8,135.3,135.9,126,139.3"/>
		<path class="st0" d="M137.5,147.9c4.8,2.5,7,6,7,11.1c0.1,12.8-17.9,16.4-22.8,4.5C117.6,153.8,128.3,143.1,137.5,147.9"/>
		<path class="st3" d="M83.4,51.7c1.6,0.1,4.3,0.1,5.9,0c1.6-0.1,0.3-0.2-3-0.2C83.1,51.5,81.8,51.6,83.4,51.7"/>
	</g>
</g>
<g>
	<path class="st0" d="M498.1,51c-0.2,0.5-0.5,1.4-0.8,2c-2.4,5.2-2.5,7.1-2.5,26.3l0,18.5l3.7-0.2l3.8-0.2l0.1-18.3
		c0.1-18.7-0.5-24.9-2.5-26.2c-0.2-0.1-0.4-0.7-0.4-1.2C499.4,50.3,498.5,49.8,498.1,51"/>
	<path class="st0" d="M419.3,82.1c0,0.9,1.1,1,23.4,1.3c23,0.3,25.6,0.2,25.1-1.3C467.3,80.8,419.3,80.9,419.3,82.1"/>
	<path class="st0" d="M494.8,116.8v18.1h3.9c3.5,0,3.9-0.1,3.9-1c0-0.7,0.3-1,1-1c0.6,0,1.3-0.5,1.6-1c0.8-1.5,0.5-27-0.4-27.3
		c-0.5-0.2-0.7,2.8-0.8,13.1c-0.1,10.1-0.3,13.4-0.8,13.5c-0.5,0.2-0.6-3.3-0.6-16.1V98.7h-3.9h-3.9V116.8"/>
	<path class="st0" d="M377.9,124.6c0,0.3,0.3,0.5,0.8,0.5c1.1,0,1,0.9-0.1,1.5c-0.9,0.5-0.9,0.5,0,0.9c1.1,0.4,1.2,1.3,0.1,1.3
		c-1.1,0-1,0.8,0.1,1.3c0.9,0.3,0.9,0.4,0,1c-0.9,0.7-0.9,0.7,0,1.2c0.9,0.5,0.9,0.6-0.1,1.3c-0.9,0.7-0.9,0.8-0.1,0.8
		c1.1,0,1.2,1.6,0.1,1.6c-0.4,0-0.8,0.2-0.8,0.5c0,0.3,0.3,0.5,0.8,0.5c1,0,1,0.8-0.1,1.3c-0.8,0.3-0.8,0.4,0.1,1.1
		c1,0.7,1,0.7,0,1.1c-1,0.4-1,0.4,0,1.1c0.9,0.7,0.9,0.8,0.1,1.4c-0.8,0.6-0.8,0.7-0.1,1c1,0.4,1,1.4,0,1.4c-0.4,0-0.8,0.2-0.8,0.5
		c0,0.3,0.3,0.5,0.8,0.5c1.1,0,1,0.8-0.1,1.3c-0.9,0.3-0.9,0.4,0,0.9c1.1,0.6,1.2,1.5,0.1,1.5c-0.4,0-0.8,0.2-0.8,0.5
		c0,0.3,0.3,0.5,0.8,0.5c1,0,1,0.9-0.1,1.4c-0.8,0.4-0.8,0.5,0,0.8c1,0.4,1.1,1.4,0.1,1.4c-0.4,0-0.8,0.2-0.8,0.5
		c0,0.3,0.3,0.5,0.8,0.5c1,0,1,0.9-0.1,1.4c-0.8,0.4-0.8,0.5,0,0.8c1,0.4,1.1,1.4,0.1,1.4c-0.4,0-0.8,0.2-0.8,0.5
		c0,0.3,0.3,0.5,0.8,0.5c1,0,1,0.9-0.1,1.4c-0.8,0.4-0.8,0.5,0,0.8c1,0.4,1.1,1.4,0.1,1.4c-0.4,0-0.8,0.2-0.8,0.5
		c0,0.3,15.3,0.5,45,0.5h45l0,27.5c0,15.1,0,31.6,0,36.5l0,8.9H496h28.2l-0.1-40.7l-0.1-40.7H496h-27.9l-0.2,3.7l-0.2,3.7h-43.7
		h-43.7v-19.1c0-10.5-0.1-19.5-0.3-19.9C379.8,124,377.9,123.7,377.9,124.6"/>
	<path class="st0" d="M421.7,124.9c-0.8,0.8-0.4,11.9,0.4,12.3c0.7,0.3,0.8-0.6,0.8-6.2C422.9,125.1,422.7,124,421.7,124.9"/>
	<path class="st0" d="M424.5,132.1c0.2,6.6,1.1,6.6,1.3,0.1c0.1-4.3,0-5-0.7-5C424.5,127.2,424.4,127.9,424.5,132.1"/>
	<path class="st0" d="M400.4,129.4c-0.5,1.2,0,7.8,0.6,7.7c0.7-0.2,1-8.4,0.3-8.4C400.9,128.7,400.5,129,400.4,129.4"/>
	<path class="st0" d="M415.6,133.3c0,3.5,0.1,4.1,0.8,3.9c1-0.4,0.9-7.5-0.2-7.8C415.8,129.2,415.6,130.2,415.6,133.3"/>
	<path class="st0" d="M427.5,133.6c0,3.3,0.1,3.9,0.8,3.6c1-0.4,0.9-7-0.2-7.3C427.7,129.7,427.5,130.7,427.5,133.6"/>
	<path class="st0" d="M448.7,133.6c0,2.6,0.2,3.4,0.8,3.4c0.6,0,0.8-0.7,0.8-3.4s-0.2-3.4-0.8-3.4
		C448.9,130.3,448.7,131,448.7,133.6"/>
	<path class="st0" d="M403.2,134.2c0,2.2,0.2,2.8,0.8,2.8s0.8-0.7,0.8-2.8c0-2.2-0.2-2.8-0.8-2.8S403.2,132,403.2,134.2"/>
	<polyline class="st0" points="494.8,139.6 494.8,141.7 498.5,141.5 502.3,141.4 502.4,139.5 502.6,137.5 498.7,137.5 494.8,137.5 
		494.8,139.6 	"/>
	<polyline class="st0" points="520.1,168.8 520.1,177.3 495.8,177.3 471.5,177.3 471.5,168.8 471.5,160.3 495.8,160.3 520.1,160.3 
		520.1,168.8 	"/>
	<path class="st0" d="M479,188c0.6,0.2,0.8,1,0.8,2.6v2.3h-2.6h-2.6v-2.2C474.6,187.7,476,186.9,479,188"/>
	<path class="st0" d="M485.4,190.4l0.2,2.5l-2.2-0.2c-2.4-0.2-3.4-2.5-1.9-4.4C482.9,186.5,485.2,187.7,485.4,190.4"/>
	<path class="st0" d="M491.6,188.4c1.6,1.9,0.5,4.2-2.2,4.3c-2.7,0.2-3.3-1.1-2.2-4.4C487.6,187.4,490.9,187.5,491.6,188.4"/>
	<path class="st0" d="M518.4,222.2l0.1,10l-3.5-0.2l-3.5-0.2l-0.1-9.5c-0.2-10.7-0.3-10.2,3.9-10.1l3,0L518.4,222.2"/>
	<path class="st1" d="M423.4,43.2c-0.7,0.1-3,0.5-5.2,0.8c-5.5,0.8-13.1,2.8-18.2,4.7l-4.3,1.6l-17.8,0.3l-17.8,0.3l-3,1.5
		c-5.7,2.8-9.5,7.9-10.7,14.1c-0.6,3.5-1,3.3,8.9,3.3h8.8l-5.1,5.3c-35.4,36.5-39.4,94-9.4,135.1c0.2,0.3,1.4-0.3,2.8-1.1
		c3.4-2.3,8.1-2.7,11.2-1.1c0.5,0.3,1.1,0.5,1.2,0.5c0.2,0,0.3-31.2,0.3-69.3V69.8l38.4-0.1l38.4-0.1l0.3-2.4
		c2.7-18.7,28.8-22.4,36.8-5.2l1.1,2.5l0.1,45.9l0.1,45.9l21.8,0.1l21.8,0.1l-0.2,23.9c-0.1,15.7,0,23.9,0.3,23.9
		c0.3,0,1.7-2.2,3.2-4.8c23.3-42.2,15.5-94.1-19.4-127.6l-5.1-4.9l-0.3,15.3c-0.4,24.7-0.1,49.2,0.7,49c0.5-0.2,0.7-3.6,0.8-13.5
		c0.1-10.3,0.3-13.3,0.8-13.1c0.8,0.3,1.2,25.8,0.4,27.3c-0.3,0.6-1,1-1.6,1c-1.1,0-1.2,0.3-1.2,5.4l0,3.1l-3.8,0.2l-3.8,0.2
		l0.2-3.3c0.1-1.8,0.1-20,0-40.4l-0.1-37.1l-3.2-2.1c-9.5-6.1-23.2-11.6-35.6-14.2C449.8,43.3,428.2,42.4,423.4,43.2"/>
	<path class="st1" d="M378.5,81c-0.5,0.2-0.6,4.2-0.6,17.5v17.3l17.5-0.1l17.5-0.1l0.1-16.7c0.1-11.9,0-16.9-0.5-17.5
		C411.9,80.6,380.2,80.3,378.5,81"/>
	<path class="st1" d="M418.9,81.4c-0.2,0.4-0.2,0.9,0,1.1c0.2,0.2,0.3-0.1,0.3-0.5c0-0.8,1.8-0.9,24.3-0.7c13.3,0.1,24.1,0,24-0.2
		C467,80.2,419.3,80.6,418.9,81.4"/>
	<path class="st1" d="M428.2,83.6c4.8,0.1,12.6,0.1,17.3,0c4.8-0.1,0.9-0.2-8.7-0.2C427.3,83.4,423.4,83.5,428.2,83.6"/>
	<path class="st1" d="M419.5,88.1c-0.7,1.8,0.2,1.8,24.1,1.8h23.8v-1.3v-1.3h-23.8C423.2,87.3,419.7,87.5,419.5,88.1"/>
	<path class="st1" d="M419.3,95.1c0,1,0.3,1,24,1c23.7,0,24,0,24-1c0-1-0.3-1-24-1C419.6,94.1,419.3,94.1,419.3,95.1"/>
	<path class="st1" d="M419.3,101.6v1.3l24.2-0.1c23.8-0.1,24.2-0.2,24.2-1.2c0-1-0.4-1-24.2-1.2l-24.2-0.1V101.6"/>
	<path class="st1" d="M419.6,106.8c-2.2,2.2-1.7,2.2,23.7,2.2h24.1l-0.2-1.2l-0.2-1.2l-23.6-0.1
		C430.6,106.5,419.8,106.6,419.6,106.8"/>
	<path class="st1" d="M419.4,114.4l0.2,1.2h12.4c12.1,0,12.4,0,12.4-1c0-1-0.4-1-12.6-1.2l-12.6-0.1L419.4,114.4"/>
	<path class="st1" d="M422.9,131.2c0,5.4-0.1,6.2-0.8,6c-0.7-0.3-0.8,1.3-0.8,12.2c0,10.1,0.1,12.5,0.7,12.5c0.7,0,1.8-36,1.1-36.6
		C423,125,422.9,127.8,422.9,131.2"/>
	<path class="st1" d="M425.9,132.4c-0.1,3.6-0.3,4.8-0.8,4.7c-0.5-0.1-0.6,2.5-0.5,12.4c0.1,7.9,0.3,12.5,0.7,12.5
		c0.5,0,1.5-33.8,1-34.3C426.1,127.6,426,129.7,425.9,132.4"/>
	<path class="st1" d="M401.6,133c-0.1,2.5-0.4,4.2-0.7,4.2c-0.3-0.1-0.6,4.4-0.7,12.3c-0.2,11.3-0.1,12.4,0.7,12.2
		c0.9-0.2,2-33,1.2-33C401.9,128.7,401.7,130.6,401.6,133"/>
	<path class="st1" d="M415.4,145.3c0,13.1,0.1,16.3,0.7,16.3c0.5,0,0.7-2.6,0.8-12.3c0.1-9.9,0-12.3-0.5-12c-0.5,0.2-0.7-0.8-0.8-4
		C415.4,130.9,415.4,136.3,415.4,145.3"/>
	<path class="st1" d="M427.2,133.6c0,2,0.1,2.7,0.2,1.7c0.1-1.1,0.1-2.7,0-3.6C427.3,130.8,427.2,131.6,427.2,133.6"/>
	<path class="st1" d="M404.3,131.1c0.9,0.4,0.7,5.9-0.2,5.9c-0.7,0-0.8,1.7-0.8,12.4c0,10.7,0.1,12.4,0.8,12.4c0.8,0,0.9-2.2,1-27.8
		c0-2-0.2-3-0.6-3.1C404,130.9,404,131,404.3,131.1"/>
	<path class="st1" d="M448.6,135.7c0.1,2.5,0.2,9.5,0.2,15.4c0,9.2,0.1,10.8,0.8,10.8c0.7,0,0.8-1.7,0.8-12.4
		c0-10.5-0.1-12.4-0.8-12.4c-0.5,0-0.8-0.8-1-3C448.5,132.4,448.5,133.1,448.6,135.7"/>
	<path class="st1" d="M378.6,134.9c0.2,0.3,0,0.6-0.4,0.7c-0.4,0.2-0.3,0.3,0.3,0.3c0.5,0,0.9-0.3,0.9-0.7s-0.2-0.8-0.5-0.8
		C378.6,134.4,378.5,134.6,378.6,134.9"/>
	<path class="st1" d="M427.8,137.7c-0.5,1.3,0,24.2,0.5,24.3c0.3,0.1,0.6-4.4,0.7-12.4C429.1,137.9,428.8,135,427.8,137.7"/>
	<path class="st1" d="M394.2,138.7c-0.6,1.6,0,22.8,0.7,23c0.5,0.2,0.6-2.4,0.6-11.7C395.5,139,395.1,136.1,394.2,138.7"/>
	<path class="st1" d="M451.8,150.2c0,10,0.1,11.6,0.8,11.6c0.7,0,0.8-1.6,0.8-11.6c0-10-0.1-11.6-0.8-11.6
		C452,138.5,451.8,140.2,451.8,150.2"/>
	<path class="st1" d="M385.5,139.4c-0.8,0.8-0.4,22.4,0.4,22.4c0.7,0,0.8-1.6,0.8-11.1C386.7,140.7,386.4,138.4,385.5,139.4"/>
	<path class="st1" d="M418.2,150.7c0,9.5,0.1,11.1,0.8,11.1c0.7,0,0.8-1.6,0.8-11.1c0-9.5-0.1-11.1-0.8-11.1
		C418.3,139.6,418.2,141.2,418.2,150.7"/>
	<path class="st1" d="M442.5,150.7c0,9.5,0.1,11.1,0.8,11.1c0.7,0,0.8-1.6,0.8-11.1c0-9.5-0.1-11.1-0.8-11.1
		C442.6,139.6,442.5,141.2,442.5,150.7"/>
	<path class="st1" d="M463.7,150.7c0,9.5,0.1,11.1,0.8,11.1c0.7,0,0.8-1.6,0.8-11.1c0-9.5-0.1-11.1-0.8-11.1
		C463.9,139.6,463.7,141.2,463.7,150.7"/>
	<path class="st1" d="M430.6,151.2c0,9.1,0.1,10.6,0.8,10.6c0.7,0,0.8-1.5,0.8-10.6c0-9.1-0.1-10.6-0.8-10.6
		C430.8,140.6,430.6,142.1,430.6,151.2"/>
	<path class="st1" d="M397.7,151.5c0.2,13.3,1.1,14.1,1.3,1.2c0.1-9.4,0-11.5-0.9-11.5C397.7,141.1,397.6,144.8,397.7,151.5"/>
	<path class="st1" d="M457.8,141.8c-0.5,1.3,0,20.3,0.5,20.3c0.3,0,0.6-3.9,0.7-10.5C459.1,141.9,458.8,139.2,457.8,141.8"/>
	<path class="st1" d="M412.5,151.7c0,8.6,0.1,10.1,0.8,10.1c0.7,0,0.8-1.5,0.8-10.1c0-8.6-0.1-10.1-0.8-10.1
		C412.7,141.6,412.5,143.1,412.5,151.7"/>
	<path class="st1" d="M445.6,151.7c0,8.6,0.1,10.1,0.8,10.1c0.7,0,0.8-1.5,0.8-10.1c0-8.6-0.1-10.1-0.8-10.1
		C445.8,141.6,445.6,143.1,445.6,151.7"/>
	<path class="st1" d="M436.6,142.8c-0.6,1.5,0,18.6,0.7,18.9c0.5,0.2,0.6-2,0.6-9.7C437.9,143,437.5,140.4,436.6,142.8"/>
	<path class="st1" d="M382.4,143.5c-0.8,0.8-0.4,18.3,0.4,18.3c0.7,0,0.8-1.4,0.8-9.3C383.6,144,383.4,142.5,382.4,143.5"/>
	<path class="st1" d="M460.6,152.8c0,7.7,0.1,9.1,0.8,9.1c0.7,0,0.8-1.4,0.8-9.1s-0.1-9.1-0.8-9.1
		C460.8,143.7,460.6,145.1,460.6,152.8"/>
	<path class="st1" d="M439.4,153c0,7.5,0.1,8.8,0.8,8.8c0.7,0,0.8-1.3,0.8-8.8c0-7.5-0.1-8.8-0.8-8.8
		C439.6,144.2,439.4,145.6,439.4,153"/>
	<path class="st1" d="M391.3,153.5c0,7.1,0.1,8.3,0.8,8.3c1.1,0,0.9-16.1-0.1-16.4C391.5,145.2,391.3,147.1,391.3,153.5"/>
	<path class="st1" d="M406.3,153.5c0,7,0.1,8.3,0.8,8.3c0.7,0,0.8-1.3,0.8-8.3c0-7-0.1-8.3-0.8-8.3
		C406.5,145.3,406.3,146.5,406.3,153.5"/>
	<path class="st1" d="M433.7,154.8c0,6,0.1,7,0.8,7c1.1,0,0.9-13.5-0.1-13.8C433.9,147.8,433.7,149.4,433.7,154.8"/>
	<path class="st1" d="M388.2,155.3c0,5.5,0.1,6.5,0.8,6.5c1.1,0,0.9-12.4-0.1-12.8C388.4,148.9,388.2,150.3,388.2,155.3"/>
	<path class="st1" d="M455,155.6c0,5.3,0.1,6.2,0.8,6.2c1,0,0.9-11.9-0.1-12.3C455.1,149.4,455,150.8,455,155.6"/>
	<path class="st1" d="M409.4,156.9c0,5.9,1,6.9,1.1,1.1c0-2.1,0.1-4.3,0.1-4.7c0-0.5-0.2-1-0.6-1.1
		C409.6,152,409.4,153.1,409.4,156.9"/>
	<path class="st1" d="M467.6,156.8c-0.1,0.4-0.2,2.2-0.1,4l0.2,3.3l0.3-4C468.1,156.1,468.1,155.5,467.6,156.8"/>
	<path class="st1" d="M467.4,169.3v4.4h-38.8h-38.8l0.9,1.2l0.9,1.2l37.9-0.1l37.9-0.1v2.1v2.1h-37.2h-37.2v1.3v1.3h37.2h37.2v1.8
		v1.8l-37.1,0.1c-20.4,0.1-37.5,0.1-37.9,0.1c-0.4,0-1.2,0.5-1.7,1.2l-0.9,1.2h38.8h38.8v2.1v2.1h-44.8h-44.8l0.2,1.2l0.2,1.2
		l44.6,0.1l44.6,0.1v1.8v1.8l-44.6,0.1c-44.2,0.1-44.6,0.1-44.6,1.2s0.4,1,44.6,1.2l44.6,0.1v8.7v8.7l-26.5,0.3
		c-14.6,0.2-36.6,0.3-49,0.3h-22.6l-1.1,2.3c-0.6,1.3-1.7,2.7-2.4,3.2c-1.9,1.2-1.8,1.3,3.2,5.3c32.4,25.8,77.2,30.4,113.9,11.7
		c9-4.6,9.2-4.3-3.8-4.3l-11.2,0l0-8.9c0-4.9,0-21.3,0-36.5c0-15.1-0.1-27.5-0.2-27.5C467.5,164.9,467.4,166.9,467.4,169.3"/>
	<path class="st1" d="M474.9,188c-0.2,0.2-0.3,1.4-0.3,2.6v2.2h2.6h2.6v-2.3c0-1.6-0.2-2.4-0.8-2.6
		C477.9,187.6,475.4,187.6,474.9,188"/>
	<path class="st1" d="M481.4,188.4c-1.5,1.8-0.5,4.2,1.9,4.4l2.2,0.2l-0.2-2.5C485.2,187.7,482.9,186.5,481.4,188.4"/>
	<path class="st1" d="M487.3,188.3c-1.1,3.3-0.5,4.6,2.2,4.4c2.6-0.2,3.8-2.4,2.2-4.3C490.9,187.5,487.6,187.4,487.3,188.3"/>
	<path class="st1" d="M378.1,206.6c-0.6,1.7,0.7,1.8,22.6,1.7l21.9-0.1l0.2-1.2l0.2-1.2h-22.3C380.9,205.8,378.3,205.9,378.1,206.6"
		/>
	<path class="st1" d="M511.8,212.5c-0.3,0.2-0.5,3.7-0.4,9.9l0.1,9.5l3.5,0.2l3.5,0.2l-0.1-10l-0.1-10l-3,0
		C513.7,212.2,512.1,212.3,511.8,212.5"/>
	<path class="st1" d="M417.6,226c6.3,2.4,8.3,11.4,3.6,16.4c-4.8,5.1-14.4,4-17.4-2.1C399.5,231.4,408.2,222.4,417.6,226"/>
	<path class="st2" d="M455,51.5c-6.6,2.4-11.9,8.8-12.9,15.6l-0.3,2.4l-38.4,0.1L365,69.8v69.5c0,67.8,0,69.5,1,70.1
		c1.5,0.8,3.7,5.6,3.7,8.1v2.2H392c12.3,0,34.3-0.2,48.9-0.3l26.5-0.3v-8.7v-8.7l-44.6-0.1c-44.2-0.1-44.6-0.1-44.6-1.2
		s0.4-1,44.6-1.2l44.6-0.1v-1.8v-1.8l-44.6-0.1l-44.6-0.1L378,194l-0.2-1.2h44.8h44.8v-2.1v-2.1h-38.8h-38.8l-1.6,1.1
		c-4.1,2.9-12,1.5-14.8-2.8c-6.1-9.3,5.1-20.5,14.6-14.6l2.1,1.3l38.7,0l38.7,0v-4.4v-4.4h-44.7c-41.1,0-46.4-0.2-44.1-1.2
		c0.5-0.2,0.5-0.4,0-0.6c-0.4-0.2-0.6-0.6-0.6-1c0-0.4,0.3-0.8,0.6-1c0.5-0.2,0.5-0.4-0.1-0.8c-0.6-0.4-0.6-0.7-0.1-1.3
		c0.5-0.5,0.5-0.8,0.1-0.8c-0.8,0-0.7-1.4,0.1-1.7c0.5-0.2,0.5-0.4-0.1-0.8c-0.7-0.5-0.7-0.6,0-1.1c0.6-0.4,0.6-0.6,0.1-0.8
		c-0.4-0.1-0.6-0.6-0.6-1c0-0.4,0.3-0.8,0.6-1c0.5-0.2,0.5-0.4-0.1-0.8c-0.6-0.4-0.6-0.7-0.1-1.3c0.5-0.5,0.5-0.8,0.1-0.8
		c-0.8,0-0.7-1.4,0.1-1.7c0.5-0.2,0.5-0.4-0.1-0.8c-0.6-0.4-0.6-0.7-0.1-1.3c0.5-0.5,0.5-0.8,0.1-0.8c-0.8,0-0.7-1.4,0.1-1.8
		c0.5-0.2,0.5-0.4,0-0.6c-0.4-0.2-0.6-0.6-0.6-1c0-0.4,0.3-0.8,0.6-1c0.5-0.2,0.5-0.3,0-0.3c-0.4,0-0.6-0.4-0.6-0.8s0.3-0.9,0.6-1
		c0.5-0.2,0.5-0.4,0-0.6c-0.8-0.4-0.9-1.8-0.1-1.8c0.4,0,0.4-0.3-0.1-0.8c-0.6-0.7-0.5-0.9,0.1-1.3c0.6-0.4,0.6-0.6,0.1-0.8
		c-0.8-0.3-0.9-1.7-0.1-1.7c0.4,0,0.4-0.3-0.1-0.8c-0.6-0.7-0.5-0.9,0.1-1.3c0.6-0.4,0.6-0.6,0.1-0.8c-0.4-0.1-0.6-0.6-0.6-1
		c0-0.4,0.3-0.8,0.6-1c0.5-0.2,0.5-0.4,0-0.6c-1.1-0.5-0.7-1.2,0.6-1.2h1.3l0.1,19.8l0.1,19.8l43.3,0.1l43.3,0.1l0.2-3.8l0.2-3.8
		l6.3-0.1l6.3-0.1l-0.1-45.9L480,64.3l-1.1-2.5C474.9,53.3,463.6,48.3,455,51.5"/>
	<path class="st1" d="M412.5,81.3c0.4,0.5,0.5,5.5,0.5,17.5l-0.1,16.7l-17.5,0.1l-17.5,0.1V98.5c0-13.3,0.1-17.3,0.6-17.5
		C380.2,80.3,411.9,80.6,412.5,81.3"/>
	<path class="st1" d="M467.6,82.2v1.3l-23.9,0.1c-25.3,0.1-25.7,0.1-24.8-2.2c0.3-0.7,3.2-0.8,24.5-0.7l24.2,0.1V82.2"/>
	<path class="st1" d="M467.4,88.6v1.3h-23.8c-23.9,0-24.8-0.1-24.1-1.8c0.2-0.6,3.8-0.8,24.1-0.8h23.8V88.6"/>
	<path class="st1" d="M467.4,95.1c0,1-0.3,1-24,1c-23.7,0-24,0-24-1c0-1,0.3-1,24-1C467,94.1,467.4,94.1,467.4,95.1"/>
	<path class="st2" d="M494.8,98.2c0,0.3,1.6,0.5,3.9,0.5c2.2,0,3.9-0.2,3.9-0.5c0-0.3-1.6-0.5-3.9-0.5
		C496.4,97.7,494.8,97.9,494.8,98.2"/>
	<path class="st1" d="M467.6,101.6c0,1-0.4,1-24.2,1.2l-24.2,0.1v-1.3v-1.3l24.2,0.1C467.2,100.5,467.6,100.6,467.6,101.6"/>
	<path class="st1" d="M467.3,107.9l0.2,1.2h-24.1c-23,0-24.1,0-24.1-0.9c0-1.6,0.2-1.7,24.3-1.5l23.6,0.1L467.3,107.9"/>
	<path class="st0" d="M444.3,114.5c0,1-0.3,1-12.4,1h-12.4l-0.2-1.2l-0.2-1.2l12.6,0.1C444,113.5,444.3,113.5,444.3,114.5"/>
	<path class="st0" d="M423.1,125c0.7,1.1-0.4,36.8-1.1,36.8c-0.6,0-0.7-3.4-0.7-18.6C421.3,124.6,421.5,122.5,423.1,125"/>
	<path class="st0" d="M426.1,144.5c-0.2,17.2-0.3,18.1-1.1,17.6c-1-0.6-0.6-35,0.4-34.8C426.2,127.4,426.2,128.6,426.1,144.5"/>
	<path class="st0" d="M402,145.2c-0.3,14.2-0.4,16.4-1.1,16.5c-0.7,0.1-0.8-1.7-0.7-16.3c0.1-17.5,0.1-17.4,1.3-16.9
		C402.3,128.9,402.3,130.5,402,145.2"/>
	<path class="st0" d="M417,145.4c-0.2,12.6-0.4,16.1-0.9,16.1c-0.9,0-1.2-31.8-0.3-32.4C417.1,128.3,417.2,129.9,417,145.4"/>
	<path class="st0" d="M429,145.8c-0.2,21.5-1.1,21.8-1.5,0.5c-0.3-16.5-0.3-16.5,0.9-16.5C429,129.8,429.1,132,429,145.8"/>
	<path class="st0" d="M450.3,146.1c0,13-0.1,15.7-0.7,15.7c-0.9,0-1.6-30.3-0.7-31.4C450.1,128.9,450.3,131.2,450.3,146.1"/>
	<path class="st0" d="M405,134.1c-0.2,25.5-0.2,27.8-1,27.8c-0.8,0-1.2-29.9-0.4-30.7C404.5,130.2,405,131.4,405,134.1"/>
	<path class="st2" d="M495.3,136.2c0,1.2,0.1,1.3,3.4,1.3c3.2,0,3.4,0,3.4-1.3c0-1.2-0.1-1.3-3.4-1.3
		C495.4,134.9,495.3,135,495.3,136.2"/>
	<path class="st1" d="M395.5,150c0,9.3-0.1,11.9-0.6,11.7c-0.6-0.2-1.3-21.5-0.7-23C395.1,136.1,395.5,139,395.5,150"/>
	<path class="st1" d="M453.4,150.2c0,10-0.1,11.6-0.8,11.6c-0.7,0-0.8-1.6-0.8-11.6c0-10,0.1-11.6,0.8-11.6
		C453.3,138.5,453.4,140.2,453.4,150.2"/>
	<path class="st1" d="M386.7,150.7c0,9.5-0.1,11.1-0.8,11.1c-0.8,0-1.2-21.6-0.4-22.4C386.4,138.4,386.7,140.7,386.7,150.7"/>
	<path class="st1" d="M419.8,150.7c0,9.5-0.1,11.1-0.8,11.1c-0.7,0-0.8-1.6-0.8-11.1c0-9.5,0.1-11.1,0.8-11.1
		C419.7,139.6,419.8,141.2,419.8,150.7"/>
	<path class="st1" d="M444.1,150.7c0,9.5-0.1,11.1-0.8,11.1c-0.7,0-0.8-1.6-0.8-11.1c0-9.5,0.1-11.1,0.8-11.1
		C444,139.6,444.1,141.2,444.1,150.7"/>
	<path class="st1" d="M465.3,150.7c0,9.5-0.1,11.1-0.8,11.1c-0.7,0-0.8-1.6-0.8-11.1c0-9.5,0.1-11.1,0.8-11.1
		C465.2,139.6,465.3,141.2,465.3,150.7"/>
	<path class="st1" d="M432.2,151.2c0,9.1-0.1,10.6-0.8,10.6c-0.7,0-0.8-1.5-0.8-10.6c0-9.1,0.1-10.6,0.8-10.6
		C432.1,140.6,432.2,142.1,432.2,151.2"/>
	<path class="st1" d="M398.8,142.3c0.5,2,0,19.5-0.5,19.5c-0.3,0-0.6-3.9-0.7-10.3C397.5,141.9,398,138.7,398.8,142.3"/>
	<path class="st1" d="M459,151.6c-0.2,13.7-1.1,14.2-1.3,0.7c-0.1-10,0-11.1,0.9-11.1C458.9,141.1,459.1,144.5,459,151.6"/>
	<path class="st1" d="M414.1,151.7c0,8.6-0.1,10.1-0.8,10.1c-0.7,0-0.8-1.5-0.8-10.1c0-8.6,0.1-10.1,0.8-10.1
		C414,141.6,414.1,143.1,414.1,151.7"/>
	<path class="st1" d="M447.2,151.7c0,8.6-0.1,10.1-0.8,10.1c-0.7,0-0.8-1.5-0.8-10.1c0-8.6,0.1-10.1,0.8-10.1
		C447.1,141.6,447.2,143.1,447.2,151.7"/>
	<path class="st1" d="M437.9,152c0,7.7-0.1,9.8-0.6,9.7c-0.7-0.2-1.3-17.3-0.7-18.9C437.5,140.4,437.9,143,437.9,152"/>
	<path class="st1" d="M383.6,152.5c0,7.9-0.1,9.3-0.8,9.3c-0.8,0-1.2-17.5-0.4-18.3C383.4,142.5,383.6,144,383.6,152.5"/>
	<path class="st1" d="M462.2,152.8c0,7.7-0.1,9.1-0.8,9.1c-0.7,0-0.8-1.4-0.8-9.1s0.1-9.1,0.8-9.1
		C462.1,143.7,462.2,145.1,462.2,152.8"/>
	<path class="st1" d="M441,153c0,7.5-0.1,8.8-0.8,8.8c-0.7,0-0.8-1.3-0.8-8.8c0-7.5,0.1-8.8,0.8-8.8C440.9,144.2,441,145.6,441,153"
		/>
	<path class="st1" d="M392.8,153.7c0.1,7,0,8.1-0.6,8.1c-0.7,0-0.8-1.2-0.8-8.3c0-6.4,0.1-8.3,0.6-8.1
		C392.5,145.6,392.7,147.8,392.8,153.7"/>
	<path class="st1" d="M407.9,153.5c0,7-0.1,8.3-0.8,8.3c-0.7,0-0.8-1.3-0.8-8.3c0-7,0.1-8.3,0.8-8.3
		C407.8,145.3,407.9,146.5,407.9,153.5"/>
	<path class="st1" d="M435.2,155c0.1,5.8,0,6.8-0.6,6.8c-0.7,0-0.8-1.1-0.8-7C433.7,144.9,435,145.1,435.2,155"/>
	<path class="st1" d="M389.7,155.5c0.1,5.4,0,6.3-0.6,6.3c-0.7,0-0.8-1-0.8-6.5C388.2,146.2,389.5,146.4,389.7,155.5"/>
	<path class="st1" d="M456.4,155.8c0.1,5.1,0,6-0.6,6c-0.7,0-0.8-1-0.8-6.2C455,146.8,456.2,147,456.4,155.8"/>
	<path class="st1" d="M410.7,153.2c0,0.5-0.1,2.6-0.1,4.7c-0.1,5.8-1.1,4.8-1.1-1.1c0-3.7,0.2-4.9,0.6-4.7
		C410.4,152.2,410.7,152.7,410.7,153.2"/>
	<path class="st2" d="M391.9,176.2c0,0.2,0.3,1.2,0.6,2.1l0.6,1.6h37.2h37.2v-2.1v-2.1h-37.8C408.8,175.8,391.9,176,391.9,176.2"/>
	<path class="st2" d="M392.4,184.3c-0.8,2.3-5.9,2.1,37.4,1.9l37.6-0.1v-1.8v-1.8h-37.2H393L392.4,184.3"/>
	<path class="st2" d="M422.8,206.9l-0.2,1.2l-21.9,0.1c-21.9,0.1-23.3,0-22.6-1.7c0.3-0.7,2.8-0.8,22.6-0.8H423L422.8,206.9"/>
	<path id="path3" class="st0" d="M376.9,172.2c-5.5,2.7-7.1,10.7-3,15.3c5.5,6.3,16.3,4.3,18.4-3.3
		C394.9,175.1,385.6,168,376.9,172.2 M355.5,207.3c-9,2.9-10,15.5-1.5,19.3c10.6,4.7,20.4-7.4,12.9-15.9
		C364.2,207.5,359.3,206.1,355.5,207.3 M408,226.4c-4.8,2.2-6.7,8.6-4.2,13.8c3.7,7.7,16,7,19.3-1
		C426.8,230.5,417.2,222.3,408,226.4"/>
	<polyline class="st1" points="471.5,168.8 471.5,177.3 495.8,177.3 520.1,177.3 520.1,168.8 520.1,160.3 495.8,160.3 471.5,160.3 
		471.5,168.8 	"/>
</g>
<g>
	<path class="st0" d="M283.1,271.8c-90.4,6.6-134.3,110.5-76.1,180.1c57.5,68.7,172.2,39,189.9-49.1c4.4-21.8,2.3-31.2-6.6-29.6
		c-4.5,0.8-5.2,2.6-6.1,13.8c-6.4,85.2-112.3,119.5-166.8,54.1c-26-31.2-29.4-75.6-8.3-109.5c26.1-42.1,77.6-57.2,122.3-35.8
		c10.6,5,15.8,3.9,15.8-3.6c0-4.1-1.2-5.6-6.8-8.5C322.7,274.5,303,270.4,283.1,271.8"/>
	<path class="st0" d="M349.6,365.3l-11.5,9.2v29.6c0,26.8,0.1,29.6,0.9,30.3c1.1,0.9,19.3,1.4,21.5,0.5l1.5-0.6v-39.1
		c0-21.5-0.2-39.1-0.4-39.1C361.3,356.1,355.9,360.2,349.6,365.3"/>
	<path class="st0" d="M265.1,381l-5.6,4.3l-0.1,24.5l-0.1,24.5l1.4,0.5c2.5,0.9,19.9,0.7,21.3-0.3l1.2-0.8v-23.9V386l-5.8-4.6
		C270.3,375.8,271.8,375.8,265.1,381"/>
	<path class="st1" d="M313,394.4c-10.1,8.2-9.3,7.8-11.9,5.7c-1.2-0.9-2.3-1.7-2.5-1.7c-0.8,0-0.3,34.5,0.4,35.6
		c1,1.3,21.4,1.6,22.7,0.3c1-1,1.3-46.9,0.3-46.8C321.8,387.6,317.6,390.7,313,394.4"/>
	<path class="st1" d="M235.6,403.4c-3.9,3-9.1,7-11.5,8.9l-4.5,3.5v8.9c0,11.5-1,10.7,12.7,10.5c8.3-0.1,10.2-0.3,10.6-1
		c0.6-1,0.7-36.4,0.1-36.4C242.8,397.9,239.5,400.4,235.6,403.4"/>
	<path class="st0" d="M333.1,317.1c0,0.4,3.9,4.3,8.7,8.6c4.8,4.3,8.6,8,8.6,8.2c-0.1,0.4-46.5,37.4-46.9,37.4
		c-0.1,0-7.3-5.6-16.1-12.5c-8.7-6.9-16.2-12.5-16.6-12.4c-0.4,0.1-12.1,8.8-26,19.5l-25.3,19.3l0,8.6c0,5.1,0.2,8.6,0.5,8.6
		c0.3,0,11.7-8.6,25.4-19c13.7-10.5,25.2-19,25.6-19c0.4,0,7.6,5.5,16.1,12.2c8.5,6.7,15.8,12.2,16.3,12.2c0.5,0,13.4-10,28.7-22.2
		c15.3-12.2,28.1-22.4,28.5-22.6c0.4-0.3,3.1,1.8,7.8,6c9.8,8.9,8.9,10.2,8.9-13.4v-19.8l-22.1-0.1
		C337.1,316.4,333.1,316.5,333.1,317.1"/>
</g>
</svg>
