<svg id="svg" version="1.1" xmlns="http://www.w3.org/2000/svg" xmlns:xlink="http://www.w3.org/1999/xlink" width="400" height="303.9274924471299" viewBox="0, 0, 400,303.9274924471299"><g id="svgg"><path id="path0" d="M16.677 8.822 C 16.163 9.335,16.176 16.126,16.692 16.552 C 17.495 17.214,35.639 16.846,36.152 16.157 C 36.741 15.366,36.613 9.707,35.990 8.958 C 35.456 8.316,17.310 8.188,16.677 8.822 M375.348 8.969 C 375.251 9.270,375.050 9.789,374.900 10.121 C 373.525 13.183,373.422 14.248,373.418 25.466 L 373.414 36.280 375.604 36.191 L 377.795 36.103 377.874 25.384 C 377.955 14.474,377.602 10.842,376.388 10.092 C 376.248 10.005,376.133 9.678,376.133 9.366 C 376.133 8.584,375.564 8.297,375.348 8.969 M53.399 21.460 C 52.723 21.872,52.585 31.725,53.248 32.248 C 53.455 32.412,54.713 32.626,56.042 32.725 C 76.133 34.211,92.200 50.052,94.302 70.443 L 94.670 74.018 100.205 74.018 L 105.740 74.018 105.740 71.480 C 105.740 50.321,88.766 28.943,67.364 23.148 C 62.321 21.782,54.435 20.829,53.399 21.460 M5.245 25.740 C 2.041 28.847,2.008 29.689,4.980 32.624 L 6.604 34.228 9.118 31.668 C 10.500 30.260,12.107 28.751,12.689 28.313 L 13.746 27.519 11.740 25.542 C 8.921 22.764,8.295 22.783,5.245 25.740 M329.305 27.141 C 329.305 27.675,329.925 27.709,342.968 27.873 C 356.403 28.043,357.911 27.963,357.622 27.094 C 357.390 26.399,329.305 26.445,329.305 27.141 M25.037 34.940 C 24.734 35.305,24.596 36.738,24.525 40.284 C 24.433 44.904,24.394 45.171,23.694 46.002 C 21.834 48.213,23.355 51.511,26.235 51.511 C 29.362 51.511,30.851 48.059,28.708 45.778 C 28.149 45.183,28.097 44.730,28.097 40.456 C 28.097 36.716,28.003 35.650,27.626 35.113 C 27.062 34.307,25.642 34.212,25.037 34.940 M373.414 47.432 L 373.414 58.006 375.680 58.006 C 377.744 58.006,377.946 57.952,377.946 57.402 C 377.946 57.003,378.147 56.798,378.539 56.798 C 378.866 56.798,379.276 56.530,379.451 56.203 C 379.929 55.310,379.727 40.422,379.235 40.258 C 378.947 40.163,378.844 41.910,378.782 47.912 C 378.720 53.808,378.610 55.721,378.323 55.816 C 378.026 55.915,377.946 53.899,377.946 46.400 L 377.946 36.858 375.680 36.858 L 373.414 36.858 373.414 47.432 M305.136 51.964 C 305.136 52.130,305.340 52.266,305.589 52.266 C 306.205 52.266,306.161 52.773,305.514 53.137 C 305.010 53.420,305.010 53.443,305.514 53.637 C 306.161 53.887,306.211 54.381,305.589 54.381 C 304.968 54.381,305.018 54.874,305.665 55.125 C 306.164 55.319,306.163 55.353,305.644 55.735 C 305.112 56.126,305.112 56.150,305.644 56.451 C 306.169 56.749,306.167 56.783,305.589 57.224 C 305.050 57.635,305.042 57.686,305.514 57.694 C 306.156 57.706,306.230 58.610,305.589 58.610 C 305.340 58.610,305.136 58.746,305.136 58.912 C 305.136 59.079,305.340 59.215,305.589 59.215 C 306.198 59.215,306.166 59.706,305.543 59.946 C 305.093 60.118,305.100 60.179,305.618 60.561 C 306.181 60.975,306.182 60.989,305.622 61.205 C 305.062 61.422,305.062 61.435,305.622 61.850 C 306.168 62.254,306.169 62.291,305.656 62.672 C 305.191 63.016,305.181 63.095,305.580 63.248 C 306.174 63.476,306.181 64.048,305.589 64.048 C 305.340 64.048,305.136 64.184,305.136 64.350 C 305.136 64.517,305.340 64.653,305.589 64.653 C 306.211 64.653,306.161 65.147,305.514 65.396 C 305.010 65.590,305.010 65.614,305.514 65.896 C 306.161 66.260,306.205 66.767,305.589 66.767 C 305.340 66.767,305.136 66.903,305.136 67.069 C 305.136 67.236,305.340 67.372,305.589 67.372 C 306.188 67.372,306.168 67.875,305.556 68.218 C 305.109 68.468,305.109 68.505,305.556 68.677 C 306.169 68.912,306.193 69.486,305.589 69.486 C 305.340 69.486,305.136 69.622,305.136 69.789 C 305.136 69.955,305.340 70.091,305.589 70.091 C 306.188 70.091,306.168 70.594,305.556 70.937 C 305.109 71.187,305.109 71.224,305.556 71.396 C 306.169 71.631,306.193 72.205,305.589 72.205 C 305.340 72.205,305.136 72.341,305.136 72.508 C 305.136 72.674,305.340 72.810,305.589 72.810 C 306.188 72.810,306.168 73.313,305.556 73.656 C 305.109 73.906,305.109 73.943,305.556 74.115 C 306.169 74.350,306.193 74.924,305.589 74.924 C 305.340 74.924,305.136 75.060,305.136 75.227 C 305.136 75.426,314.100 75.529,331.425 75.529 L 357.714 75.529 357.704 91.616 C 357.698 100.465,357.696 110.049,357.699 112.915 L 357.704 118.127 374.149 118.127 L 390.595 118.127 390.515 94.335 L 390.435 70.544 374.145 70.544 L 357.855 70.544 357.766 72.734 L 357.677 74.924 332.162 74.924 L 306.647 74.924 306.647 63.771 C 306.647 57.636,306.564 52.402,306.463 52.140 C 306.264 51.620,305.136 51.471,305.136 51.964 M330.715 52.165 C 330.264 52.616,330.493 59.142,330.967 59.324 C 331.355 59.473,331.420 58.955,331.420 55.731 C 331.420 52.286,331.284 51.596,330.715 52.165 M332.391 56.346 C 332.506 60.177,333.056 60.230,333.168 56.420 C 333.242 53.906,333.185 53.474,332.779 53.474 C 332.375 53.474,332.317 53.899,332.391 56.346 M318.254 54.788 C 317.981 55.500,318.261 59.370,318.580 59.292 C 319.002 59.189,319.153 54.381,318.734 54.381 C 318.556 54.381,318.340 54.564,318.254 54.788 M327.190 57.065 C 327.190 59.132,327.260 59.471,327.656 59.319 C 328.252 59.090,328.172 54.957,327.568 54.757 C 327.287 54.664,327.190 55.254,327.190 57.065 M334.139 57.216 C 334.139 59.148,334.210 59.470,334.605 59.319 C 335.199 59.091,335.119 55.258,334.517 55.059 C 334.237 54.967,334.139 55.526,334.139 57.216 M346.526 57.251 C 346.526 58.795,346.623 59.215,346.979 59.215 C 347.335 59.215,347.432 58.795,347.432 57.251 C 347.432 55.707,347.335 55.287,346.979 55.287 C 346.623 55.287,346.526 55.707,346.526 57.251 M319.940 57.553 C 319.940 58.828,320.045 59.215,320.393 59.215 C 320.741 59.215,320.846 58.828,320.846 57.553 C 320.846 56.277,320.741 55.891,320.393 55.891 C 320.045 55.891,319.940 56.277,319.940 57.553 M373.414 60.738 L 373.414 61.960 375.604 61.871 L 377.795 61.782 377.888 60.650 L 377.982 59.517 375.698 59.517 L 373.414 59.517 373.414 60.738 M388.218 77.795 L 388.218 82.779 374.018 82.779 L 359.819 82.779 359.819 77.795 L 359.819 72.810 374.018 72.810 L 388.218 72.810 388.218 77.795 M0.294 74.481 C -0.246 75.131,0.079 80.550,0.900 84.592 C 5.686 108.149,25.678 125.688,49.320 127.071 L 52.870 127.279 52.870 121.494 L 52.870 115.710 51.111 115.710 C 31.540 115.710,13.608 98.501,11.496 77.693 C 11.338 76.142,11.050 74.681,10.855 74.446 C 10.314 73.794,0.839 73.825,0.294 74.481 M364.175 89.005 C 364.510 89.134,364.653 89.584,364.653 90.516 L 364.653 91.843 363.142 91.843 L 361.631 91.843 361.631 90.534 C 361.631 88.828,362.443 88.341,364.175 89.005 M367.918 90.426 L 368.010 91.879 366.709 91.786 C 365.300 91.684,364.696 90.314,365.588 89.240 C 366.482 88.163,367.816 88.843,367.918 90.426 M371.585 89.255 C 372.511 90.372,371.853 91.685,370.317 91.784 C 368.750 91.885,368.383 91.144,369.038 89.199 C 369.213 88.680,371.143 88.722,371.585 89.255 M387.242 109.010 L 387.324 114.832 385.278 114.742 L 383.233 114.653 383.150 109.086 C 383.057 102.836,382.948 103.121,385.426 103.161 L 387.160 103.189 387.242 109.010 M196.374 177.950 C 146.113 181.612,121.721 239.362,154.096 278.051 C 186.043 316.229,249.835 299.732,259.640 250.755 C 262.070 238.616,260.903 233.398,255.964 234.325 C 253.486 234.789,253.067 235.744,252.594 241.994 C 249.014 289.348,190.156 308.439,159.871 272.069 C 145.409 254.700,143.541 230.046,155.258 211.190 C 169.793 187.801,198.423 179.408,223.223 191.265 C 229.092 194.071,232.026 193.410,232.023 189.283 C 232.021 187.012,231.354 186.182,228.221 184.550 C 218.372 179.420,207.402 177.147,196.374 177.950 M233.308 229.920 L 226.888 235.040 226.888 251.471 C 226.888 266.373,226.935 267.940,227.387 268.316 C 228.018 268.842,238.097 269.085,239.358 268.606 L 240.181 268.293 240.181 246.533 C 240.181 234.565,240.079 224.779,239.955 224.786 C 239.830 224.794,236.839 227.104,233.308 229.920 M186.351 238.625 L 183.233 240.997 183.154 254.644 L 183.075 268.291 183.853 268.586 C 185.219 269.106,194.917 268.963,195.703 268.412 L 196.375 267.942 196.375 254.674 L 196.375 241.406 193.127 238.833 C 189.233 235.748,190.099 235.774,186.351 238.625 " stroke="none" fill="#0e2b4d" fill-rule="evenodd"></path><path id="path1" d="M331.722 4.405 C 331.307 4.476,329.947 4.680,328.701 4.859 C 325.517 5.316,321.036 6.475,318.076 7.607 L 315.559 8.570 305.136 8.741 L 294.713 8.912 292.986 9.760 C 289.684 11.382,287.409 14.379,286.733 17.998 C 286.355 20.022,286.134 19.940,291.908 19.940 L 297.072 19.940 294.071 23.036 C 273.415 44.347,271.070 77.949,288.565 101.936 C 288.675 102.086,289.403 101.787,290.184 101.270 C 292.190 99.941,294.924 99.666,296.698 100.616 C 296.997 100.776,297.318 100.906,297.412 100.906 C 297.506 100.906,297.583 82.690,297.583 60.425 L 297.583 19.943 320.011 19.866 L 342.440 19.789 342.644 18.363 C 344.207 7.433,359.497 5.278,364.141 15.332 L 364.804 16.767 364.885 43.577 L 364.967 70.386 377.725 70.465 L 390.483 70.544 390.362 84.517 C 390.282 93.674,390.343 98.489,390.541 98.489 C 390.706 98.489,391.537 97.232,392.387 95.695 C 406.014 71.052,401.414 40.732,381.077 21.148 L 378.097 18.278 377.946 27.190 C 377.701 41.646,377.893 55.959,378.331 55.813 C 378.607 55.721,378.721 53.716,378.782 47.912 C 378.844 41.910,378.947 40.163,379.235 40.258 C 379.727 40.422,379.929 55.310,379.451 56.203 C 379.276 56.530,378.866 56.798,378.539 56.798 C 377.891 56.798,377.844 57.002,377.813 59.970 L 377.795 61.782 375.576 61.872 L 373.358 61.961 373.447 60.059 C 373.496 59.013,373.508 48.399,373.475 36.473 L 373.414 14.788 371.526 13.574 C 365.978 10.005,357.953 6.798,350.755 5.273 C 347.127 4.505,334.509 3.929,331.722 4.405 M23.036 16.841 L 21.450 16.950 21.450 20.686 L 21.450 24.422 19.109 25.215 C -4.414 33.183,-2.854 66.310,21.299 71.741 L 24.320 72.420 24.407 75.543 C 24.516 79.461,24.511 79.456,27.756 79.458 C 30.264 79.459,32.452 79.833,32.747 80.311 C 32.825 80.436,33.236 81.462,33.661 82.591 L 34.434 84.644 32.020 87.164 C 28.847 90.478,28.833 90.359,32.885 94.353 C 36.810 98.220,36.568 98.193,39.760 95.136 C 42.626 92.391,42.476 92.423,45.557 93.891 L 47.281 94.713 47.432 98.288 C 47.627 102.895,47.403 102.719,53.057 102.719 C 58.461 102.719,58.308 102.834,58.308 98.790 C 58.308 94.769,58.419 94.549,60.929 93.564 C 63.635 92.503,63.395 92.444,65.761 94.752 C 69.410 98.312,69.327 98.320,73.494 93.997 C 76.860 90.505,76.865 90.411,73.867 87.330 C 71.292 84.684,71.251 84.522,72.475 81.794 C 73.501 79.508,73.594 79.466,77.659 79.460 C 81.428 79.455,81.269 79.689,81.269 74.146 C 81.269 68.490,81.492 68.767,76.818 68.629 L 73.365 68.527 72.483 66.562 C 71.250 63.814,71.290 63.657,73.867 61.008 C 76.860 57.932,76.865 57.970,73.031 54.149 C 69.191 50.321,69.225 50.325,66.144 53.323 C 63.510 55.886,63.556 55.873,60.871 54.798 C 58.407 53.812,58.308 53.617,58.308 49.755 C 58.308 45.747,58.384 45.817,53.806 45.619 C 50.341 45.470,50.301 45.460,50.210 44.713 C 49.156 36.120,42.505 28.230,33.862 25.321 L 31.118 24.398 31.118 20.658 L 31.118 16.918 28.272 16.918 C 26.707 16.918,25.246 16.877,25.025 16.826 C 24.803 16.774,23.909 16.782,23.036 16.841 M305.514 26.484 C 305.222 26.602,305.136 28.939,305.136 36.736 L 305.136 46.836 315.332 46.756 L 325.529 46.677 325.608 36.894 C 325.665 29.927,325.589 26.992,325.345 26.698 C 325.005 26.288,306.495 26.088,305.514 26.484 M329.107 26.750 C 329.009 27.007,329.013 27.301,329.117 27.405 C 329.220 27.508,329.305 27.364,329.305 27.084 C 329.305 26.612,330.354 26.580,343.476 26.656 C 351.270 26.701,357.583 26.635,357.506 26.511 C 357.197 26.011,329.301 26.246,329.107 26.750 M334.517 28.021 C 337.300 28.070,341.854 28.070,344.637 28.021 C 347.421 27.971,345.144 27.930,339.577 27.930 C 334.011 27.930,331.733 27.971,334.517 28.021 M329.420 30.650 C 329.024 31.683,329.537 31.722,343.522 31.722 L 357.402 31.722 357.402 30.967 L 357.402 30.211 343.495 30.211 C 331.616 30.211,329.564 30.275,329.420 30.650 M30.145 32.783 C 39.005 34.871,44.387 44.632,41.433 53.253 C 36.814 66.733,18.362 67.958,12.096 55.200 C 6.150 43.097,16.958 29.674,30.145 32.783 M329.305 34.743 C 329.305 35.339,329.507 35.347,343.353 35.347 C 357.200 35.347,357.402 35.339,357.402 34.743 C 357.402 34.148,357.200 34.139,343.353 34.139 C 329.507 34.139,329.305 34.148,329.305 34.743 M329.305 38.520 L 329.305 39.281 343.429 39.202 C 357.325 39.125,357.553 39.114,357.553 38.520 C 357.553 37.925,357.325 37.914,343.429 37.837 L 329.305 37.758 329.305 38.520 M329.510 41.588 C 328.227 42.870,328.545 42.900,343.374 42.900 L 357.444 42.900 357.347 42.221 L 357.251 41.541 343.482 41.462 C 335.910 41.419,329.622 41.476,329.510 41.588 M329.359 45.992 L 329.456 46.677 336.707 46.677 C 343.756 46.677,343.958 46.660,343.958 46.073 C 343.958 45.487,343.729 45.466,336.610 45.387 L 329.262 45.306 329.359 45.992 M331.420 55.831 C 331.420 58.966,331.354 59.472,330.967 59.324 C 330.572 59.172,330.514 60.083,330.514 66.433 C 330.514 72.313,330.591 73.716,330.918 73.716 C 331.317 73.716,331.957 52.703,331.570 52.315 C 331.487 52.233,331.420 53.815,331.420 55.831 M333.169 56.532 C 333.104 58.624,332.981 59.345,332.699 59.288 C 332.396 59.227,332.333 60.749,332.396 66.539 C 332.448 71.169,332.589 73.867,332.779 73.867 C 333.066 73.867,333.654 54.097,333.375 53.819 C 333.310 53.753,333.217 54.974,333.169 56.532 M318.970 56.873 C 318.919 58.319,318.755 59.344,318.580 59.315 C 318.388 59.283,318.239 61.910,318.170 66.519 C 318.072 73.132,318.107 73.764,318.561 73.669 C 319.060 73.565,319.732 54.381,319.237 54.381 C 319.138 54.381,319.018 55.502,318.970 56.873 M327.031 64.048 C 327.038 71.672,327.118 73.565,327.434 73.565 C 327.745 73.565,327.846 72.045,327.915 66.376 C 327.984 60.569,327.925 59.216,327.608 59.338 C 327.309 59.452,327.191 58.893,327.119 57.010 C 327.066 55.647,327.026 58.814,327.031 64.048 M333.936 57.251 C 333.937 58.414,333.992 58.853,334.057 58.226 C 334.123 57.599,334.122 56.647,334.055 56.111 C 333.988 55.575,333.935 56.088,333.936 57.251 M320.536 55.788 C 321.060 56.048,320.928 59.215,320.393 59.215 C 320.003 59.215,319.940 60.222,319.940 66.465 C 319.940 72.709,320.003 73.716,320.393 73.716 C 320.844 73.716,320.892 72.411,320.986 57.503 C 320.993 56.350,320.871 55.765,320.612 55.712 C 320.400 55.670,320.366 55.704,320.536 55.788 M346.415 58.430 C 346.476 59.910,346.526 63.954,346.526 67.418 C 346.526 72.815,346.591 73.716,346.979 73.716 C 347.369 73.716,347.432 72.709,347.432 66.465 C 347.432 60.327,347.365 59.215,346.993 59.215 C 346.675 59.215,346.520 58.737,346.429 57.477 C 346.361 56.522,346.354 56.951,346.415 58.430 M305.573 57.980 C 305.667 58.132,305.573 58.325,305.364 58.410 C 305.135 58.502,305.195 58.572,305.514 58.586 C 305.804 58.600,306.042 58.406,306.042 58.157 C 306.042 57.908,305.898 57.704,305.722 57.704 C 305.546 57.704,305.479 57.828,305.573 57.980 M334.275 59.599 C 333.986 60.352,334.285 73.715,334.592 73.792 C 334.786 73.840,334.923 71.234,334.975 66.541 C 335.050 59.770,334.875 58.035,334.275 59.599 M314.637 60.204 C 314.289 61.110,314.652 73.515,315.030 73.641 C 315.325 73.739,315.408 72.237,315.408 66.793 C 315.408 60.382,315.212 58.706,314.637 60.204 M348.338 66.918 C 348.338 72.759,348.402 73.716,348.792 73.716 C 349.181 73.716,349.245 72.759,349.245 66.918 C 349.245 61.078,349.181 60.121,348.792 60.121 C 348.402 60.121,348.338 61.078,348.338 66.918 M309.559 60.633 C 309.097 61.094,309.348 73.716,309.819 73.716 C 310.207 73.716,310.272 72.795,310.272 67.238 C 310.272 61.358,310.132 60.060,309.559 60.633 M328.701 67.221 C 328.701 72.793,328.765 73.716,329.154 73.716 C 329.543 73.716,329.607 72.793,329.607 67.221 C 329.607 61.648,329.543 60.725,329.154 60.725 C 328.765 60.725,328.701 61.648,328.701 67.221 M342.900 67.221 C 342.900 72.793,342.965 73.716,343.353 73.716 C 343.742 73.716,343.807 72.793,343.807 67.221 C 343.807 61.648,343.742 60.725,343.353 60.725 C 342.965 60.725,342.900 61.648,342.900 67.221 M355.287 67.221 C 355.287 72.793,355.351 73.716,355.740 73.716 C 356.129 73.716,356.193 72.793,356.193 67.221 C 356.193 61.648,356.129 60.725,355.740 60.725 C 355.351 60.725,355.287 61.648,355.287 67.221 M335.952 67.523 C 335.952 72.826,336.017 73.716,336.405 73.716 C 336.793 73.716,336.858 72.826,336.858 67.523 C 336.858 62.219,336.793 61.329,336.405 61.329 C 336.017 61.329,335.952 62.219,335.952 67.523 M316.686 67.674 C 316.790 75.424,317.337 75.905,317.458 68.354 C 317.545 62.885,317.443 61.631,316.906 61.631 C 316.712 61.631,316.633 63.786,316.686 67.674 M351.796 62.018 C 351.507 62.771,351.806 73.867,352.115 73.867 C 352.304 73.867,352.448 71.572,352.499 67.749 C 352.574 62.108,352.377 60.504,351.796 62.018 M325.378 67.825 C 325.378 72.860,325.443 73.716,325.831 73.716 C 326.218 73.716,326.284 72.860,326.284 67.825 C 326.284 62.790,326.218 61.934,325.831 61.934 C 325.443 61.934,325.378 62.790,325.378 67.825 M344.713 67.825 C 344.713 72.860,344.779 73.716,345.166 73.716 C 345.553 73.716,345.619 72.860,345.619 67.825 C 345.619 62.790,345.553 61.934,345.166 61.934 C 344.779 61.934,344.713 62.790,344.713 67.825 M339.409 62.624 C 339.066 63.517,339.424 73.515,339.804 73.641 C 340.097 73.738,340.181 72.479,340.181 68.001 C 340.181 62.716,339.961 61.185,339.409 62.624 M307.754 63.041 C 307.290 63.506,307.530 73.716,308.006 73.716 C 308.392 73.716,308.459 72.910,308.459 68.278 C 308.459 63.311,308.344 62.452,307.754 63.041 M57.810 64.306 C 64.400 67.550,65.986 76.238,60.988 81.708 C 55.863 87.315,46.479 86.006,43.137 79.217 C 38.448 69.694,48.339 59.643,57.810 64.306 M353.474 68.429 C 353.474 72.927,353.542 73.716,353.927 73.716 C 354.313 73.716,354.381 72.927,354.381 68.429 C 354.381 63.931,354.313 63.142,353.927 63.142 C 353.542 63.142,353.474 63.931,353.474 68.429 M341.088 68.580 C 341.088 72.944,341.156 73.716,341.541 73.716 C 341.926 73.716,341.994 72.944,341.994 68.580 C 341.994 64.216,341.926 63.444,341.541 63.444 C 341.156 63.444,341.088 64.216,341.088 68.580 M312.991 68.857 C 312.991 73.011,313.058 73.716,313.452 73.716 C 314.068 73.716,313.987 64.329,313.369 64.124 C 313.077 64.027,312.991 65.104,312.991 68.857 M321.752 68.882 C 321.752 72.978,321.822 73.716,322.205 73.716 C 322.589 73.716,322.659 72.978,322.659 68.882 C 322.659 64.787,322.589 64.048,322.205 64.048 C 321.822 64.048,321.752 64.787,321.752 68.882 M337.764 69.612 C 337.764 73.093,337.834 73.716,338.226 73.716 C 338.841 73.716,338.759 65.839,338.142 65.634 C 337.852 65.538,337.764 66.464,337.764 69.612 M311.178 69.914 C 311.178 73.126,311.250 73.716,311.641 73.716 C 312.255 73.716,312.172 66.443,311.556 66.238 C 311.267 66.142,311.178 67.008,311.178 69.914 M350.151 70.065 C 350.151 73.143,350.224 73.716,350.614 73.716 C 351.227 73.716,351.144 66.745,350.529 66.540 C 350.241 66.445,350.151 67.280,350.151 70.065 M50.975 68.075 C 45.580 69.753,44.961 77.314,50.000 79.992 C 51.207 80.633,54.533 80.633,55.740 79.992 C 62.606 76.343,58.379 65.772,50.975 68.075 M323.565 70.821 C 323.565 74.275,324.144 74.832,324.220 71.450 C 324.247 70.204,324.281 68.958,324.295 68.681 C 324.309 68.404,324.150 68.121,323.943 68.051 C 323.658 67.956,323.565 68.639,323.565 70.821 M357.528 70.802 C 357.441 71.027,357.414 72.081,357.466 73.144 L 357.561 75.076 357.708 72.733 C 357.855 70.390,357.822 70.035,357.528 70.802 M94.419 76.504 C 92.620 98.191,74.906 115.634,54.607 115.704 L 52.870 115.710 52.870 121.450 L 52.870 127.190 54.305 127.185 C 80.780 127.089,105.264 103.562,105.547 77.946 L 105.589 74.169 100.108 74.087 L 94.626 74.005 94.419 76.504 M357.402 78.097 L 357.402 80.665 334.729 80.665 L 312.056 80.665 312.569 81.344 L 313.082 82.024 335.242 81.945 L 357.402 81.865 357.402 83.078 L 357.402 84.290 335.650 84.290 L 313.897 84.290 313.897 85.045 L 313.897 85.801 335.650 85.801 L 357.402 85.801 357.402 86.858 L 357.402 87.915 335.725 87.969 C 323.803 87.999,313.837 88.025,313.578 88.027 C 313.320 88.029,312.872 88.345,312.582 88.729 L 312.056 89.426 334.729 89.426 L 357.402 89.426 357.402 90.634 L 357.402 91.843 331.248 91.843 L 305.094 91.843 305.190 92.523 L 305.287 93.202 331.344 93.280 L 357.402 93.357 357.402 94.411 L 357.402 95.465 331.344 95.542 C 305.514 95.619,305.287 95.625,305.287 96.224 C 305.287 96.823,305.514 96.828,331.344 96.905 L 357.402 96.982 357.402 102.067 L 357.402 107.152 341.944 107.352 C 333.443 107.463,320.554 107.553,313.304 107.553 L 300.120 107.553 299.467 108.898 C 299.107 109.638,298.468 110.470,298.047 110.746 C 296.964 111.455,296.990 111.497,299.924 113.832 C 318.881 128.915,345.002 131.600,366.466 120.673 C 371.706 118.006,371.828 118.148,364.275 118.136 L 357.704 118.127 357.699 112.915 C 357.696 110.049,357.698 100.465,357.704 91.616 C 357.709 82.768,357.644 75.529,357.558 75.529 C 357.472 75.529,357.402 76.684,357.402 78.097 M361.833 89.023 C 361.722 89.134,361.631 89.814,361.631 90.534 L 361.631 91.843 363.142 91.843 L 364.653 91.843 364.653 90.516 C 364.653 89.584,364.510 89.134,364.175 89.005 C 363.537 88.760,362.084 88.771,361.833 89.023 M365.588 89.240 C 364.696 90.314,365.300 91.684,366.709 91.786 L 368.010 91.879 367.918 90.426 C 367.816 88.843,366.482 88.163,365.588 89.240 M369.038 89.199 C 368.383 91.144,368.750 91.885,370.317 91.784 C 371.853 91.685,372.511 90.372,371.585 89.255 C 371.143 88.722,369.213 88.680,369.038 89.199 M305.237 99.869 C 304.859 100.855,305.646 100.913,318.447 100.834 L 331.269 100.755 331.365 100.076 L 331.462 99.396 318.441 99.396 C 306.896 99.396,305.398 99.449,305.237 99.869 M383.379 103.326 C 383.178 103.450,383.097 105.497,383.150 109.086 L 383.233 114.653 385.278 114.742 L 387.324 114.832 387.242 109.010 L 387.160 103.189 385.426 103.161 C 384.472 103.146,383.551 103.220,383.379 103.326 M328.304 111.197 C 332.003 112.595,333.165 117.857,330.424 120.796 C 327.622 123.799,321.998 123.115,320.278 119.562 C 317.777 114.394,322.828 109.129,328.304 111.197 M212.991 246.106 C 207.372 250.650,207.837 250.427,206.382 249.275 C 205.732 248.760,205.118 248.338,205.017 248.338 C 204.585 248.338,204.823 267.543,205.263 268.145 C 205.805 268.887,217.162 269.061,217.885 268.339 C 218.459 267.765,218.631 242.291,218.061 242.308 C 217.848 242.314,215.566 244.023,212.991 246.106 M169.940 251.099 C 167.779 252.764,164.890 255.000,163.520 256.068 L 161.027 258.011 161.027 262.986 C 161.027 269.395,160.491 268.954,168.114 268.826 C 172.713 268.748,173.791 268.648,174.025 268.278 C 174.363 267.742,174.430 248.027,174.094 248.054 C 173.969 248.064,172.100 249.435,169.940 251.099 " stroke="none" fill="#9ac8b5" fill-rule="evenodd"></path><path id="path2" d="M350.153 9.248 C 346.298 10.645,343.210 14.403,342.640 18.390 L 342.440 19.789 320.011 19.866 L 297.583 19.943 297.583 60.565 C 297.583 100.180,297.597 101.195,298.158 101.495 C 299.044 101.969,300.302 104.760,300.302 106.253 L 300.302 107.553 313.394 107.553 C 320.595 107.553,333.443 107.463,341.944 107.352 L 357.402 107.152 357.402 102.067 L 357.402 96.982 331.344 96.905 C 305.514 96.828,305.287 96.823,305.287 96.224 C 305.287 95.625,305.514 95.619,331.344 95.542 L 357.402 95.465 357.402 94.411 L 357.402 93.357 331.344 93.280 L 305.287 93.202 305.190 92.523 L 305.094 91.843 331.248 91.843 L 357.402 91.843 357.402 90.634 L 357.402 89.426 334.714 89.426 L 312.027 89.426 311.118 90.073 C 308.702 91.794,304.127 90.929,302.480 88.441 C 298.902 83.034,305.465 76.476,311.027 79.901 L 312.236 80.646 334.819 80.655 L 357.402 80.665 357.402 78.097 L 357.402 75.529 331.269 75.529 C 307.235 75.529,304.137 75.441,305.514 74.799 C 305.816 74.658,305.816 74.587,305.514 74.446 C 305.306 74.349,305.136 74.089,305.136 73.867 C 305.136 73.646,305.306 73.395,305.514 73.311 C 305.802 73.194,305.788 73.086,305.457 72.856 C 305.098 72.605,305.091 72.472,305.419 72.077 C 305.684 71.759,305.702 71.601,305.475 71.601 C 305.013 71.601,305.044 70.782,305.514 70.592 C 305.798 70.477,305.779 70.358,305.438 70.114 C 305.035 69.825,305.035 69.752,305.438 69.463 C 305.779 69.219,305.798 69.100,305.514 68.985 C 305.306 68.901,305.136 68.651,305.136 68.429 C 305.136 68.207,305.306 67.957,305.514 67.873 C 305.802 67.756,305.788 67.648,305.457 67.418 C 305.098 67.167,305.091 67.034,305.419 66.639 C 305.684 66.321,305.702 66.163,305.475 66.163 C 305.013 66.163,305.044 65.344,305.514 65.154 C 305.802 65.037,305.788 64.929,305.457 64.699 C 305.098 64.448,305.091 64.315,305.419 63.920 C 305.684 63.602,305.702 63.444,305.475 63.444 C 305.014 63.444,305.044 62.631,305.514 62.412 C 305.816 62.271,305.816 62.200,305.514 62.059 C 305.306 61.962,305.136 61.702,305.136 61.480 C 305.136 61.259,305.306 61.009,305.514 60.925 C 305.816 60.803,305.816 60.768,305.514 60.749 C 305.306 60.736,305.136 60.532,305.136 60.297 C 305.136 60.062,305.306 59.790,305.514 59.693 C 305.816 59.552,305.816 59.481,305.514 59.340 C 305.044 59.121,305.014 58.308,305.475 58.308 C 305.702 58.308,305.684 58.151,305.419 57.832 C 305.091 57.437,305.098 57.304,305.457 57.054 C 305.788 56.823,305.802 56.715,305.514 56.598 C 305.044 56.408,305.013 55.589,305.475 55.589 C 305.702 55.589,305.684 55.432,305.419 55.113 C 305.091 54.718,305.098 54.585,305.457 54.335 C 305.788 54.104,305.802 53.996,305.514 53.879 C 305.306 53.795,305.136 53.545,305.136 53.323 C 305.136 53.102,305.306 52.841,305.514 52.744 C 305.816 52.603,305.816 52.533,305.514 52.392 C 304.874 52.093,305.095 51.662,305.888 51.662 L 306.639 51.662 306.718 63.218 L 306.798 74.773 332.086 74.851 L 357.375 74.928 357.464 72.736 L 357.553 70.544 361.260 70.459 L 364.967 70.374 364.885 43.571 L 364.804 16.767 364.141 15.332 C 361.814 10.294,355.201 7.418,350.153 9.248 M325.345 26.698 C 325.589 26.992,325.665 29.927,325.608 36.894 L 325.529 46.677 315.332 46.756 L 305.136 46.836 305.136 36.736 C 305.136 28.939,305.222 26.602,305.514 26.484 C 306.495 26.088,325.005 26.288,325.345 26.698 M357.553 27.190 L 357.553 27.946 343.620 28.024 C 328.861 28.107,328.596 28.084,329.112 26.738 C 329.267 26.334,330.996 26.287,343.421 26.357 L 357.553 26.435 357.553 27.190 M357.402 30.967 L 357.402 31.722 343.522 31.722 C 329.537 31.722,329.024 31.683,329.420 30.650 C 329.564 30.275,331.616 30.211,343.495 30.211 L 357.402 30.211 357.402 30.967 M21.500 33.097 C 12.078 36.306,7.779 46.412,12.096 55.200 C 19.518 70.310,42.134 65.030,42.134 48.187 C 42.134 37.358,31.602 29.656,21.500 33.097 M27.719 34.991 C 27.986 35.325,28.097 36.902,28.097 40.390 C 28.097 43.182,28.217 45.317,28.374 45.317 C 30.223 45.317,30.191 49.889,28.333 51.190 C 24.990 53.532,21.086 48.992,23.736 45.843 C 24.446 44.999,24.471 44.806,24.471 40.295 C 24.471 35.771,24.494 35.599,25.193 34.900 C 25.985 34.109,27.044 34.147,27.719 34.991 M357.402 34.743 C 357.402 35.339,357.200 35.347,343.353 35.347 C 329.507 35.347,329.305 35.339,329.305 34.743 C 329.305 34.148,329.507 34.139,343.353 34.139 C 357.200 34.139,357.402 34.148,357.402 34.743 M373.414 36.556 C 373.414 36.730,374.371 36.858,375.680 36.858 C 376.989 36.858,377.946 36.730,377.946 36.556 C 377.946 36.381,376.989 36.254,375.680 36.254 C 374.371 36.254,373.414 36.381,373.414 36.556 M357.553 38.520 C 357.553 39.114,357.325 39.125,343.429 39.202 L 329.305 39.281 329.305 38.520 L 329.305 37.758 343.429 37.837 C 357.325 37.914,357.553 37.925,357.553 38.520 M357.347 42.221 L 357.444 42.900 343.374 42.900 C 329.933 42.900,329.305 42.876,329.305 42.346 C 329.305 41.389,329.422 41.382,343.482 41.462 L 357.251 41.541 357.347 42.221 M343.958 46.073 C 343.958 46.660,343.756 46.677,336.707 46.677 L 329.456 46.677 329.359 45.992 L 329.262 45.306 336.610 45.387 C 343.729 45.466,343.958 45.487,343.958 46.073 M331.551 52.234 C 331.946 52.872,331.331 73.716,330.918 73.716 C 330.588 73.716,330.514 71.721,330.514 62.840 C 330.514 51.963,330.633 50.747,331.551 52.234 M333.270 63.600 C 333.155 73.635,333.120 74.171,332.608 73.854 C 332.012 73.486,332.257 53.417,332.855 53.533 C 333.349 53.629,333.376 54.298,333.270 63.600 M319.237 64.020 C 319.083 72.295,318.997 73.578,318.592 73.663 C 318.177 73.750,318.129 72.676,318.162 64.146 C 318.203 53.902,318.194 54.008,318.932 54.290 C 319.366 54.457,319.397 55.447,319.237 64.020 M327.957 64.143 C 327.843 71.509,327.727 73.565,327.425 73.565 C 326.890 73.565,326.732 54.966,327.264 54.637 C 328.031 54.163,328.097 55.064,327.957 64.143 M334.974 64.351 C 334.867 76.883,334.356 77.060,334.100 64.653 C 333.903 55.030,333.905 54.985,334.614 54.985 C 334.991 54.985,335.043 56.318,334.974 64.351 M347.432 64.519 C 347.432 72.096,347.359 73.716,347.019 73.716 C 346.507 73.716,346.105 55.998,346.602 55.366 C 347.307 54.469,347.432 55.842,347.432 64.519 M320.986 57.503 C 320.892 72.411,320.844 73.716,320.393 73.716 C 319.912 73.716,319.673 56.258,320.147 55.784 C 320.670 55.261,320.996 55.929,320.986 57.503 M373.716 58.761 C 373.716 59.490,373.787 59.517,375.680 59.517 C 377.573 59.517,377.644 59.490,377.644 58.761 C 377.644 58.033,377.573 58.006,375.680 58.006 C 373.787 58.006,373.716 58.033,373.716 58.761 M315.408 66.793 C 315.408 72.237,315.325 73.739,315.030 73.641 C 314.652 73.515,314.289 61.110,314.637 60.204 C 315.212 58.706,315.408 60.382,315.408 66.793 M349.245 66.918 C 349.245 72.759,349.181 73.716,348.792 73.716 C 348.402 73.716,348.338 72.759,348.338 66.918 C 348.338 61.078,348.402 60.121,348.792 60.121 C 349.181 60.121,349.245 61.078,349.245 66.918 M310.272 67.238 C 310.272 72.795,310.207 73.716,309.819 73.716 C 309.348 73.716,309.097 61.094,309.559 60.633 C 310.132 60.060,310.272 61.358,310.272 67.238 M329.607 67.221 C 329.607 72.793,329.543 73.716,329.154 73.716 C 328.765 73.716,328.701 72.793,328.701 67.221 C 328.701 61.648,328.765 60.725,329.154 60.725 C 329.543 60.725,329.607 61.648,329.607 67.221 M343.807 67.221 C 343.807 72.793,343.742 73.716,343.353 73.716 C 342.965 73.716,342.900 72.793,342.900 67.221 C 342.900 61.648,342.965 60.725,343.353 60.725 C 343.742 60.725,343.807 61.648,343.807 67.221 M356.193 67.221 C 356.193 72.793,356.129 73.716,355.740 73.716 C 355.351 73.716,355.287 72.793,355.287 67.221 C 355.287 61.648,355.351 60.725,355.740 60.725 C 356.129 60.725,356.193 61.648,356.193 67.221 M336.858 67.523 C 336.858 72.826,336.793 73.716,336.405 73.716 C 336.017 73.716,335.952 72.826,335.952 67.523 C 335.952 62.219,336.017 61.329,336.405 61.329 C 336.793 61.329,336.858 62.219,336.858 67.523 M317.376 62.311 C 317.670 63.505,317.395 73.717,317.069 73.717 C 316.881 73.717,316.737 71.447,316.686 67.674 C 316.610 62.086,316.854 60.189,317.376 62.311 M352.499 67.749 C 352.392 75.764,351.844 76.039,351.730 68.136 C 351.646 62.301,351.701 61.631,352.263 61.631 C 352.477 61.631,352.554 63.618,352.499 67.749 M326.284 67.825 C 326.284 72.860,326.218 73.716,325.831 73.716 C 325.443 73.716,325.378 72.860,325.378 67.825 C 325.378 62.790,325.443 61.934,325.831 61.934 C 326.218 61.934,326.284 62.790,326.284 67.825 M345.619 67.825 C 345.619 72.860,345.553 73.716,345.166 73.716 C 344.779 73.716,344.713 72.860,344.713 67.825 C 344.713 62.790,344.779 61.934,345.166 61.934 C 345.553 61.934,345.619 62.790,345.619 67.825 M340.181 68.001 C 340.181 72.479,340.097 73.738,339.804 73.641 C 339.424 73.515,339.066 63.517,339.409 62.624 C 339.961 61.185,340.181 62.716,340.181 68.001 M308.459 68.278 C 308.459 72.910,308.392 73.716,308.006 73.716 C 307.530 73.716,307.290 63.506,307.754 63.041 C 308.344 62.452,308.459 63.311,308.459 68.278 M49.330 63.713 C 40.033 67.165,39.387 80.069,48.302 84.249 C 57.555 88.588,67.211 78.701,62.827 69.376 C 60.521 64.469,54.311 61.864,49.330 63.713 M354.381 68.429 C 354.381 72.927,354.313 73.716,353.927 73.716 C 353.542 73.716,353.474 72.927,353.474 68.429 C 353.474 63.931,353.542 63.142,353.927 63.142 C 354.313 63.142,354.381 63.931,354.381 68.429 M341.994 68.580 C 341.994 72.944,341.926 73.716,341.541 73.716 C 341.156 73.716,341.088 72.944,341.088 68.580 C 341.088 64.216,341.156 63.444,341.541 63.444 C 341.926 63.444,341.994 64.216,341.994 68.580 M313.829 68.983 C 313.901 73.060,313.849 73.716,313.452 73.716 C 313.058 73.716,312.991 73.011,312.991 68.857 C 312.991 65.104,313.077 64.027,313.369 64.124 C 313.644 64.215,313.769 65.525,313.829 68.983 M322.659 68.882 C 322.659 72.978,322.589 73.716,322.205 73.716 C 321.822 73.716,321.752 72.978,321.752 68.882 C 321.752 64.787,321.822 64.048,322.205 64.048 C 322.589 64.048,322.659 64.787,322.659 68.882 M338.604 69.738 C 338.676 73.143,338.622 73.716,338.226 73.716 C 337.834 73.716,337.764 73.093,337.764 69.612 C 337.764 63.850,338.481 63.957,338.604 69.738 M312.018 70.040 C 312.091 73.176,312.035 73.716,311.641 73.716 C 311.250 73.716,311.178 73.126,311.178 69.914 C 311.178 64.594,311.895 64.701,312.018 70.040 M350.991 70.191 C 351.064 73.192,351.008 73.716,350.614 73.716 C 350.224 73.716,350.151 73.143,350.151 70.065 C 350.151 64.967,350.868 65.074,350.991 70.191 M55.443 68.310 C 58.019 69.671,59.197 71.532,59.208 74.260 C 59.236 81.123,49.646 83.017,46.995 76.671 C 44.802 71.422,50.555 65.728,55.443 68.310 M324.295 68.681 C 324.281 68.958,324.247 70.204,324.220 71.450 C 324.144 74.832,323.565 74.275,323.565 70.821 C 323.565 68.639,323.658 67.956,323.943 68.051 C 324.150 68.121,324.309 68.404,324.295 68.681 M313.293 82.130 C 313.293 82.272,313.442 82.815,313.625 83.339 L 313.956 84.290 335.679 84.290 L 357.402 84.290 357.402 83.082 L 357.402 81.873 335.347 81.873 C 323.218 81.873,313.293 81.989,313.293 82.130 M313.588 86.878 C 313.142 88.231,310.141 88.079,335.423 87.985 L 357.402 87.904 357.402 86.852 L 357.402 85.801 335.673 85.801 L 313.944 85.801 313.588 86.878 M331.365 100.076 L 331.269 100.755 318.447 100.834 C 305.646 100.913,304.859 100.855,305.237 99.869 C 305.398 99.449,306.896 99.396,318.441 99.396 L 331.462 99.396 331.365 100.076 " stroke="none" fill="#f9f9f9" fill-rule="evenodd"></path><path id="path3" d="M304.583 79.802 C 301.392 81.381,300.462 86.054,302.807 88.725 C 306.030 92.395,312.338 91.253,313.582 86.773 C 315.046 81.502,309.627 77.305,304.583 79.802 M292.039 100.296 C 286.757 101.968,286.188 109.344,291.170 111.548 C 297.340 114.277,303.087 107.204,298.730 102.242 C 297.111 100.398,294.299 99.580,292.039 100.296 M322.738 111.471 C 319.954 112.734,318.804 116.517,320.278 119.562 C 322.443 124.033,329.597 123.654,331.557 118.963 C 333.708 113.814,328.090 109.041,322.738 111.471 " stroke="none" fill="#f9c71e" fill-rule="evenodd"></path><path id="path4" d="M26.511 16.839 C 27.383 16.900,28.810 16.900,29.683 16.839 C 30.555 16.778,29.841 16.728,28.097 16.728 C 26.352 16.728,25.638 16.778,26.511 16.839 M359.819 77.795 L 359.819 82.779 374.018 82.779 L 388.218 82.779 388.218 77.795 L 388.218 72.810 374.018 72.810 L 359.819 72.810 359.819 77.795 M224.169 203.116 C 224.169 203.337,226.343 205.480,229.001 207.877 C 231.658 210.274,233.799 212.327,233.759 212.438 C 233.681 212.652,207.898 233.233,207.707 233.233 C 207.645 233.233,203.623 230.100,198.768 226.270 C 193.913 222.441,189.757 219.348,189.533 219.397 C 189.308 219.446,182.804 224.313,175.078 230.211 L 161.031 240.937 161.029 245.695 C 161.028 248.518,161.145 250.453,161.316 250.453 C 161.475 250.453,167.830 245.697,175.440 239.884 C 183.049 234.071,189.447 229.312,189.657 229.310 C 189.867 229.307,193.902 232.364,198.624 236.103 C 203.346 239.841,207.434 242.900,207.709 242.900 C 207.984 242.900,215.165 237.354,223.667 230.576 C 232.168 223.798,239.295 218.147,239.505 218.018 C 239.755 217.865,241.241 219.011,243.830 221.355 C 249.286 226.292,248.792 227.035,248.792 213.897 L 248.792 202.870 236.480 202.791 C 226.376 202.726,224.169 202.785,224.169 203.116 " stroke="none" fill="#4ca2e8" fill-rule="evenodd"></path></g></svg>